<?xml version="1.0" encoding="UTF-8" standalone="no"?>
<!-- Created with Inkscape (http://www.inkscape.org/) -->

<svg
   version="1.1"
   id="svg1"
   width="5461.3335"
   height="5461.3335"
   viewBox="0 0 5461.3335 5461.3335"
   sodipodi:docname="softballfield.eps"
   xmlns:inkscape="http://www.inkscape.org/namespaces/inkscape"
   xmlns:sodipodi="http://sodipodi.sourceforge.net/DTD/sodipodi-0.dtd"
   xmlns="http://www.w3.org/2000/svg"
   xmlns:svg="http://www.w3.org/2000/svg">
  <defs
     id="defs1" />
  <sodipodi:namedview
     id="namedview1"
     pagecolor="#ffffff"
     bordercolor="#000000"
     borderopacity="0.25"
     inkscape:showpageshadow="2"
     inkscape:pageopacity="0.0"
     inkscape:pagecheckerboard="0"
     inkscape:deskcolor="#d1d1d1">
    <inkscape:page
       x="0"
       y="0"
       inkscape:label="1"
       id="page1"
       width="5461.3335"
       height="5461.3335"
       margin="0"
       bleed="0" />
  </sodipodi:namedview>
  <g
     id="g1"
     inkscape:groupmode="layer"
     inkscape:label="1">
    <g
       id="group-R5">
      <path
         id="path2"
         d="m 0,40960 c 13653.3,0 27306.7,0 40960,0 0,-13653.3 0,-27306.7 0,-40960 C 27306.7,0 13653.3,0 0,0 0,13653.3 0,27306.7 0,40960"
         style="fill:#fefdfd;fill-opacity:1;fill-rule:nonzero;stroke:none"
         transform="matrix(0.13333333,0,0,-0.13333333,0,5461.3333)" />
      <path
         id="path3"
         d="m 37266.9,25894.5 c 256.8,-486 472.1,-991.2 690.9,-1494.7 82.3,-189.2 162.5,-379.3 246.4,-567.9 16.7,-37.5 22.3,-62.5 -10.1,-96.6 -374.2,-393.7 -727.9,-806.1 -1093.8,-1207.4 -884.4,-970.3 -1770.2,-1939.3 -2656.9,-2907.5 -574,-626.6 -1150.4,-1250.8 -1726.1,-1875.8 -532.8,-578.5 -1065.7,-1156.8 -1599.3,-1734.5 -438.7,-474.9 -878.5,-948.7 -1317.8,-1423 -819.7,-885.1 -1640.5,-1769.1 -2458.6,-2655.6 -781.9,-847.3 -1560.6,-1697.6 -2341.7,-2545.7 -399.6,-433.8 -802.4,-864.7 -1202.2,-1298.3 -361.4,-392 -720,-786.6 -1081.9,-1178 -37.3,-40.4 -35.7,-83.1 -35.6,-129.1 0.6,-410 1.5,-820 2.6,-1230 0.2,-110.2 -9.8,-218.4 -38.8,-325.9 -111.9,-414.6 -493.2,-735.1 -958.4,-765.9 -29.9,-2 -59.9,-2 -89.9,-2 -730,-0.5 -1460,0.3 -2190,-2.2 -173.7,-0.6 -337.2,33.6 -490.7,114 -301.6,158.2 -470.4,413.3 -536,741.9 -14.4,71.8 -19.7,144.9 -19.5,218.5 1.5,423.3 0.5,846.7 3.8,1270 0.5,67.1 -13.2,119.3 -60.2,170.4 -255,277.1 -505.4,558.4 -759.7,836.1 -560.4,612 -1122.6,1222.5 -1683.5,1834.2 -846.8,923.6 -1692.1,1848.8 -2540,2771.5 -879.5,957.1 -1762,1911.4 -2642.2,2867.8 -1015.71,1103.5 -2029.48,2208.7 -3045.9,3311.5 -713.77,774.4 -1431.73,1545 -2145.74,2319.2 -822.46,891.8 -1642.62,1785.7 -2463.81,2678.7 -54.13,58.8 -104.91,121.4 -163.73,175.2 -55.15,50.3 -62.19,96.8 -32.54,165.9 199.46,465.1 398.81,930.3 621.43,1384.9 99.56,203.3 204.1,404.2 306.38,606.2 59.29,17.7 81.72,-34.1 111.88,-63.9 289.86,-286.8 577.03,-576.4 866.37,-863.7 799.66,-807.4 1613.84,-1600.5 2400.63,-2420.7 18.81,-18.8 37.05,-38.3 56,-57 722.33,-714.7 1419.39,-1454.4 2144.95,-2165.9 36.84,-36.1 86.04,-67.4 79.07,-131.2 -30.29,-96.6 -89.85,-177.9 -137.95,-265.3 -58.64,-106.4 -57.9,-125.7 26.34,-208.2 580.86,-569.1 1133.92,-1165.7 1714.02,-1735.6 318.6,-313 639.2,-624.4 946.5,-948.4 582.7,-614.4 1200,-1194.3 1784.5,-1806.4 356.9,-373.7 733.7,-727.4 1086.5,-1104.5 457.8,-489.4 950.4,-944.3 1409.9,-1431.4 331.8,-351.7 686.6,-680.4 1015.3,-1034.3 344.9,-371.5 711.8,-720.7 1066.9,-1081.8 63.2,-64.2 78.7,-124.3 57.1,-214.1 -172.2,-716.8 -42.9,-1377.7 404.8,-1963.8 382,-500.1 900.1,-780.9 1524.9,-833.5 676.9,-57 1278.1,136.2 1772.6,618.4 26.3,25.6 52.4,51.3 82.6,72.5 189.3,169.4 310.6,384.6 407.8,614.5 46.2,109.1 97.2,218.1 100.6,340.5 30.2,153.6 58.7,307.5 69.6,463.9 13.9,200.4 5.9,401.7 -50,593.8 -47.4,162.8 1.8,269.8 135.6,353.7 64.3,23.6 109.6,72.3 154.4,120.8 105,113.7 230.7,207.9 318.5,337.8 7.8,12.3 18,22.2 30.2,30 67.2,33.8 112.4,93 163.4,144.7 149.1,151.5 295.2,306.4 443.9,458 556.3,566.8 1120.2,1126.3 1682.3,1687.4 37.7,37.6 77,73.6 104.9,119.7 149.1,152.1 289.9,312.3 439.9,463.1 765.5,769.8 1534.6,1536.1 2302,2304.1 498.5,498.9 995.7,999.5 1483.9,1508.3 604.2,629.6 1231.4,1235.8 1843.3,1857.5 48.4,49.2 89.6,92.4 28.5,158 -50.9,118.1 -142.5,214.4 -181.6,338.9 -4.3,53.8 34.6,83.5 66,117.2 383.4,411.4 783.7,806.2 1182.9,1202 316.7,313.8 612.6,647.6 934.3,956.4 458.9,455.5 922.9,906.3 1369.5,1373.7 338.5,354.3 690.9,694.3 1030.9,1046.7 302.2,288.6 583.9,597.2 876.6,895 48.5,49.3 96,100.9 162.8,127.2"
         style="fill:#4476c3;fill-opacity:1;fill-rule:nonzero;stroke:none"
         transform="matrix(0.13333333,0,0,-0.13333333,0,5461.3333)" />
      <path
         id="path4"
         d="m 36939.7,26360.6 c 22.1,-46.6 26,-111.7 103.5,-102.3 4.3,-51.6 -37.6,-75 -66.7,-104.3 -247.4,-249.6 -497.1,-497.1 -744.5,-746.8 -396.1,-436.1 -834.7,-830.7 -1237.1,-1260 -336.9,-359.4 -693,-699.1 -1036.2,-1051.9 -62.4,-64.1 -106.8,-145.3 -184.6,-194.8 -82.8,-54.1 -131.4,-140.6 -199.2,-208.9 -119.6,-120.6 -238.7,-241.7 -360.4,-360.3 -541.4,-527.5 -1054,-1083.5 -1592.4,-1614 -66.2,-65.2 -121.7,-140.8 -182.4,-211.5 -47.8,-64.7 -108,-117.8 -164.6,-174.1 -852.4,-847.6 -1684.3,-1715.5 -2538.1,-2561.9 -176.9,-175.2 -339.8,-365.2 -510.7,-546.9 -45.8,-48.6 -95.3,-93.2 -158,-120.2 -52.3,-9.9 -103.3,-15.3 -136.2,40.2 -11.4,47.5 20.5,76.7 50.3,101.2 61.3,50.5 46.4,88.7 -5.1,136.7 -90.1,83.9 -174.5,173.9 -262.3,260.3 -57.5,56.7 -61.9,106.5 -7.3,172.4 108.8,131.1 233.4,246.4 350.4,369.2 54.8,57.4 105.8,58.8 164.8,9.9 95.1,-78.8 179.6,-168.8 264,-258.2 55.1,-58.3 92.4,-53.6 146.6,1.1 389.2,392.5 788.6,775.1 1168.8,1176 259,273 528.5,535.2 790.7,804.7 252.9,259.8 502.9,522.3 752,785.8 14,19 30.1,36.2 46.5,53.2 433.1,459.7 892,894.3 1326.8,1352 350.5,368.8 717.8,720.4 1070.5,1086.6 475.2,504.2 978.3,981.2 1456.9,1481.7 278.6,291.3 566.6,573 848.5,860.8 49.9,51 59.1,90.3 22.8,155.7 -360.4,649.8 -738.4,1289 -1161.6,1900.3 -371.6,536.8 -758,1062.7 -1186.8,1556 -110.5,150.8 -241.3,284.4 -366.7,421.9 -309.6,339.9 -629,671.5 -965.3,984.8 -345.8,322.1 -697,639 -1070.5,929.8 -468.8,371.6 -946.7,730.7 -1447.1,1058.9 -302.9,198.7 -615.5,381.6 -929.6,562 -790.3,450.4 -1610.2,837.8 -2461.9,1157.7 -788.4,302.7 -1596.9,537.2 -2422.4,714.6 -695.7,157.9 -1401.3,248.6 -2110.6,314.8 -128.7,12 -256.2,37.6 -386.3,36 -601.6,34.5 -1203.7,14.7 -1805.5,18.7 -169.6,1.1 -338.3,-19.6 -507.1,-33.4 -791.3,-43.1 -1572.9,-157.1 -2346.5,-327.8 -38.9,-8.5 -79,-11.2 -117,-23.5 -811.2,-170.7 -1600.2,-416.7 -2377.1,-703.3 -661.1,-254.1 -1310.1,-534.8 -1933.4,-873.3 -183.9,-99.8 -371.4,-192.9 -551.7,-299.4 -434.5,-241 -853.5,-507.1 -1260.1,-792 -387.2,-271.5 -773.28,-545.1 -1133.34,-853 -301.06,-241 -585.94,-500.4 -871.88,-758.8 -160.49,-145.1 -314.57,-296.3 -466.96,-449.4 -368.09,-369.9 -727.8,-747.6 -1064.35,-1146.8 -470.18,-583.9 -941.6,-1167.1 -1345.25,-1800.3 -297.18,-466.2 -603.72,-927.2 -849.85,-1423.9 -33.71,-68.1 -110.22,-128.3 -98.63,-201.3 11.43,-71.9 98.55,-111.2 150.57,-166.6 707.23,-753.2 1456.1,-1465.1 2181.06,-2200.8 370.41,-359.7 723.73,-736.3 1081.68,-1108 395.15,-410.4 801,-809.8 1200.69,-1215.5 35.27,-35.8 64.44,-76.3 96.36,-114.6 35.38,-41.1 73.26,-79.4 120.35,-107.4 130.47,-109.9 232.88,-246.8 352.65,-366.9 498.5,-500.3 998.4,-999.1 1497.8,-1498.5 313.1,-313.2 609.5,-642.8 929.2,-949.6 90.9,-87.3 90.7,-88.4 181.6,1.7 75.6,75 150.3,150.5 234.1,217.4 54.4,43.4 96.2,47.5 147.3,-1.8 134.3,-129.4 257.8,-269.8 401.3,-389.7 50.3,-42 26.5,-82.7 -9.8,-118.8 -87.3,-86.9 -167.3,-182 -265.7,-256.6 -61.7,-46.7 -64.4,-85.9 -6.6,-134.3 70.4,-58.9 117.2,-135.3 158.3,-215.9 -3.6,-52.9 45.3,-120.4 -41.4,-150.4 -48.5,2.4 -76.3,38.2 -105.9,68.7 -791.5,817.8 -1606.2,1612.8 -2401.4,2426.8 -306.9,314.1 -619,623.1 -924.65,938.4 -78.7,81.1 -175.6,142.9 -248.8,230.1 -36.09,52.3 -78.81,98.7 -123.87,143.4 -146.6,145.5 -291.54,292.6 -438.46,437.8 -592.26,585.1 -1159.56,1195 -1756.06,1776 -38.43,37.4 -68.23,81.8 -103.6,121.5 -544.7,550.9 -1093.74,1097.5 -1642.81,1643.9 -282.71,281.4 -545.14,582.4 -835.74,855.9 -274.87,231.5 -491.62,522.1 -767.04,753 105.27,26.5 72.08,115.2 82.79,184.2 46.43,1.8 69.68,-34.5 96.3,-62 133.18,-137.5 279.46,-262.5 397.23,-414.8 10.08,-13 22.73,-24 34.3,-35.7 108.85,-110.9 108.85,-110.9 188.63,24.2 427.16,803.5 909.15,1572.1 1452.38,2302.6 268.13,360.5 543.04,715.5 828.84,1062.1 52.83,64 118.08,117.4 164.33,187.3 341.07,354.3 662.14,728.4 1023.68,1062.4 456.16,421.4 900,857.4 1401.17,1227.6 538.68,432 1099.98,831.6 1690.88,1189.4 222.3,134.5 441.6,273.9 670.2,397.9 410.9,232.5 835.6,437.8 1260.2,643.2 401.3,194.1 815.5,356.6 1232.2,513.7 736.4,281.6 1495.4,486.1 2262.1,664.3 48.7,11.3 97.4,22.7 145.8,35.6 706.2,154.7 1420.7,254.1 2139.7,323.1 92.4,8.9 185.7,10.5 278.2,22.7 437.9,22.5 875.5,49.9 1314.2,43.3 362,-5.5 723.4,-24.8 1084.6,-45.4 267.8,-28.8 537.1,-42.6 804.9,-73 543.4,-61.7 1079.8,-164.2 1616.2,-266.9 657.1,-145.3 1306.7,-318.9 1944.9,-533.2 160.9,-54 321.5,-109.4 479.2,-172.4 364.4,-146.7 729.4,-291.8 1089.1,-449.9 359.8,-158.3 707.9,-340.2 1054,-526 102.7,-55.2 208.1,-104.8 310.2,-161 370.4,-216.5 743.7,-427.7 1102.5,-664.3 417.1,-274.9 820.8,-567.4 1212.2,-877.5 28.6,-22.7 58.3,-44.2 86.7,-67.2 261.8,-216.3 529.6,-425.3 782.9,-651.9 89.2,-79.8 182.9,-156.3 266.4,-240.9 248.2,-251.3 520.3,-478.1 759.6,-737.8 200.6,-217.7 415,-423 601.1,-654.1 440.1,-503.6 852,-1029 1236.2,-1576.6 395.8,-564 760.4,-1147.2 1103,-1744.6 36.5,-63.6 69.1,-129 102.1,-194.2 14.8,-33.6 35.5,-63.7 54.3,-95.1 73.8,-123.6 75.6,-124.9 168.3,-9.3 121,151 267.6,276.8 401.3,415.2 19.8,20.5 40.3,46.5 76.2,35.1"
         style="fill:#fdfef3;fill-opacity:1;fill-rule:nonzero;stroke:none"
         transform="matrix(0.13333333,0,0,-0.13333333,0,5461.3333)" />
      <path
         id="path5"
         d="m 36225.8,25997.8 c -196.8,358.5 -403.5,711.5 -621.6,1057.3 -402.9,638.9 -836.2,1257 -1308.9,1846.7 -147.7,184.2 -302.8,362.4 -454.2,543.7 -21.2,25.3 -40.4,52.4 -60.6,78.6 -21.8,45.5 -32.8,93.1 -32.8,143.8 0,308.5 -1.1,616.9 1.2,925.3 0.3,46.7 -12.5,102.6 47.4,129.3 288.1,-291.2 575.1,-583.5 839.1,-897.3 326,-387.6 643.4,-781.9 948.4,-1186.2 8,-10.7 15.2,-21.8 23.3,-32.4 17.4,-22.9 35.7,-29.4 55,-2.1 9.7,13.6 19.5,27 28.3,41.2 147.7,237.9 286,480.6 381.5,745.3 6.8,18.7 14,37.2 22.3,55.2 2.3,4.9 9.7,7.4 19.5,14.4 -6.3,-424 -57.6,-835.3 -244.3,-1239.3 110.1,37.4 179.5,111 268.7,148 91.7,38.1 183.5,74.4 283.2,96.9 -65.3,-78.8 -144.3,-143.8 -206.6,-223.9 -61.8,-79.4 -135.1,-150.9 -188.9,-257.7 67.9,9.4 93,46.8 121.7,75.1 218.5,214.9 476.8,360.4 769.9,446.3 12.7,3.7 25.5,6.9 38.4,9.8 3,0.7 6.5,-1.1 10.8,-1.9 4.7,-20 -12.3,-26.1 -23.7,-34.2 -256.2,-181.4 -457.4,-415.9 -643.4,-665.2 -9.9,-13.3 -19.5,-26.9 -29.6,-40.2 -63.2,-84 -63.3,-84 -6.8,-173.5 22.6,-52.9 29.5,-108.2 29.4,-165.5 -0.6,-365.8 -0.7,-731.7 0,-1097.5 0.2,-90.3 -18.6,-178.4 -24.3,-268 -1.9,-29.3 -6.5,-60.9 -42.4,-72"
         style="fill:#66a530;fill-opacity:1;fill-rule:nonzero;stroke:none"
         transform="matrix(0.13333333,0,0,-0.13333333,0,5461.3333)" />
      <path
         id="path6"
         d="m 7206.78,29519.1 c -147.03,-180.4 -302.25,-353.9 -446.74,-536.6 -700.96,-886.4 -1347.76,-1808.8 -1883.7,-2805.9 -39.34,-73.2 -82.55,-144.3 -123.95,-216.4 -43.05,17.8 -42.44,58.1 -42.34,93.2 1.62,509.5 -13.66,1019.1 7.52,1528.4 96.04,171.6 206.28,333.8 322.36,492.2 43.8,59.7 43.04,59.5 -11.29,111 -176.89,167.4 -356.89,330.6 -581.33,434.4 -12.22,5.6 -23.43,13 -27.02,33 298.45,-22.4 575.95,-104.4 824.42,-278.1 4.99,5.1 9.97,10.2 14.96,15.3 -32.18,74.4 -66.76,147.8 -95.88,223.3 -29.67,77.1 -46.55,157.8 -61.88,251.8 103.09,-84.3 149.35,-209.2 285.97,-278.2 -171.71,378.3 -196.94,753.9 -137.83,1140.6 77.11,-293.4 193.33,-569.5 343.61,-827.8 20.9,-9.9 28.05,4.5 35.13,14.1 247.1,335.2 516.25,652.4 786.15,969.2 231.12,271.3 467,538 714.77,794.1 16.06,16.6 34.46,31 51.78,46.4 52.06,-14.8 47.84,-60.4 48.18,-97.9 2.98,-326.5 3.35,-652.9 0.62,-979.3 -0.37,-44.3 -23.71,-83.1 -23.51,-126.8"
         style="fill:#69a930;fill-opacity:1;fill-rule:nonzero;stroke:none"
         transform="matrix(0.13333333,0,0,-0.13333333,0,5461.3333)" />
      <path
         id="path7"
         d="m 31377.5,31795.2 c -290.3,222 -576.5,449.4 -877.3,657.4 -465,321.4 -939.9,626.8 -1437.1,896.5 -29.1,15.8 -56.3,34.9 -84.4,52.5 -19.3,31.7 -30,65.7 -30.2,103.1 -1.2,247.6 -2.7,495.2 1.3,742.8 0.6,37.9 -1.5,82.2 49,97.4 273.5,-130.6 533.5,-285.8 794.8,-438.6 158,-92.5 313.7,-188.7 460.9,-297.9 60.5,-44.9 62.2,-44.7 108.2,18.8 230.9,318.5 454.7,641.2 597.3,1011.8 6.2,15.9 14.8,29.6 31.8,41.1 -41.7,-440.2 -126.4,-866.8 -325.9,-1266.7 146.9,132 290.3,264.7 452.2,380.7 -66.9,-146.8 -133.9,-293.5 -211,-462.5 118.6,62.9 216.7,118.7 318,167.7 105,50.8 216.6,85.1 329.8,113.3 113.2,28.2 228.2,47.5 343.7,61.8 113.8,14.2 227.8,33.5 345.7,15.7 -192.5,-89.2 -385.8,-174.1 -561.7,-292.5 -176.6,-119 -341.7,-252.3 -509.8,-394.7 77.2,-79 177.6,-115.5 249.1,-188.8 20.1,-118.5 5.2,-237.8 8.8,-356.8 5.1,-168.6 -7.2,-337.4 14.4,-506.1 7.5,-58.6 11.2,-128.6 -67.6,-156"
         style="fill:#66a530;fill-opacity:1;fill-rule:nonzero;stroke:none"
         transform="matrix(0.13333333,0,0,-0.13333333,0,5461.3333)" />
      <path
         id="path8"
         d="m 7206.78,29519.1 c -11.95,6.6 -23.59,15.1 -21.91,29.9 31.07,273.5 7.35,547.9 14.77,821.8 2.43,89.3 0.76,178.7 0.15,268 -0.21,29.1 6.75,60.3 -18.32,84.2 131.77,145.3 267.96,286.5 414.14,417.1 40.37,36.1 39.79,53.8 7.28,94.1 -169.84,210.8 -350.53,409.7 -577.2,561.8 -13.27,8.9 -29.77,15.3 -38.1,48.3 168.94,-27.6 320.3,-86.6 469.51,-152.5 150.18,-66.3 282.69,-160.4 414.13,-263.9 -114.77,239.8 -208.89,484.3 -277.37,744.3 41.31,-7.5 47.47,-36 59.73,-57 93.07,-159.5 213.54,-296.6 343.8,-426.1 26.31,-26.1 54.75,-49.2 90.12,-61 59.82,-19.8 88.18,-0.6 90.6,62.8 1.39,36.4 0.21,73.5 -5.01,109.5 -25.83,178.3 -17.39,358.6 -32.38,537.5 -1.76,21.1 -9.12,44.8 10.95,70.4 34.22,-36.1 45.21,-81.6 61.64,-122.8 46.98,-118.1 108,-228.3 178.54,-333.5 33.63,-50.1 35.83,-50.5 79.48,-8.6 322.49,309.8 681.89,574 1038.35,841.8 15.68,11.8 33.56,20.6 50.42,30.8 68.31,16.1 61.44,-34.7 58.55,-71.8 -18.09,-232.5 -2.33,-465.2 -9.24,-697.7 -2.46,-82.7 35.05,-163.9 7.18,-247 -162.02,-132.5 -328.9,-259.4 -485.21,-398.3 -592.02,-526 -1174.73,-1061.9 -1703.87,-1652.9 -70.73,-79 -140.34,-159.4 -220.73,-229.2"
         style="fill:#8acb3a;fill-opacity:1;fill-rule:nonzero;stroke:none"
         transform="matrix(0.13333333,0,0,-0.13333333,0,5461.3333)" />
      <path
         id="path9"
         d="m 31377.5,31795.2 c 44.1,52.8 52,116.7 37.5,178.3 -14.9,62.9 -14.3,125 -14.5,187.8 -0.8,182.9 -0.8,365.7 -0.7,548.6 0,36.1 -6,73.9 22,104.2 266.9,-186.5 526.7,-382.6 775.8,-592.3 534.5,-450 1049.1,-921.5 1534.3,-1424.7 22.7,-23.6 50.4,-43.4 64.4,-74.6 -24.2,-28.7 -15.2,-63.2 -15.3,-95.5 -0.6,-367.6 -0.4,-735.3 -0.5,-1102.9 -117.5,126.5 -233.6,254.4 -353,379.1 -480.5,502.5 -973.8,991.8 -1504.2,1442.2 -179.7,152.5 -363.7,300 -545.8,449.8"
         style="fill:#86c83a;fill-opacity:1;fill-rule:nonzero;stroke:none"
         transform="matrix(0.13333333,0,0,-0.13333333,0,5461.3333)" />
      <path
         id="path10"
         d="m 26540.1,34534.9 c -188.3,65.6 -375.2,135.6 -565.2,196.1 -595.9,189.8 -1195.9,365.5 -1809.3,491.5 -16,3.3 -31,11.2 -46.5,16.9 -31,35.6 -30.9,79.4 -31.1,122.6 -0.8,199.2 -1.9,398.4 0.8,597.6 0.6,46.7 -10.3,102.5 52.4,125 296.8,-42.3 586.3,-118.3 876.4,-191.7 106.4,-26.9 212.5,-54.9 318.9,-81.8 79.4,-20.2 78.9,-19.7 80.6,67.3 1.5,78.8 4.4,157.6 6.7,236 40.9,7.6 46.8,-19.2 57.1,-37.5 50.5,-89.8 103.7,-178.5 139.9,-275.7 8.1,-21.8 16.2,-43.7 26.6,-64.5 7.3,-14.9 19.1,-29.8 37.4,-28.8 26.9,1.5 27.6,24.7 28.6,44 12.8,245.8 32.9,492.2 -45.6,733.8 238.3,-241 375.9,-530.7 416.2,-882.9 253.2,330.2 592.7,483.6 973.3,567.8 -79.2,-70.2 -168.4,-127.7 -246.1,-199.3 -81,-74.6 -158,-152.6 -228.8,-237 -70.5,-84.1 -139.5,-169.2 -195.7,-266 45.4,-43.8 111.7,-30.6 155.6,-67.8 27.7,-32.6 29.5,-72.5 29.7,-112.2 1.1,-214.2 1.5,-428.5 -0.3,-642.7 -0.3,-39.2 0.2,-79.9 -31.6,-110.7"
         style="fill:#6aac31;fill-opacity:1;fill-rule:nonzero;stroke:none"
         transform="matrix(0.13333333,0,0,-0.13333333,0,5461.3333)" />
      <path
         id="path11"
         d="m 16862.3,35238.1 c -56.6,-31 -120.9,-33.2 -181.9,-47.6 -739.5,-174.6 -1470.6,-377.6 -2183.3,-642.9 -12.4,-4.6 -25.6,-6.8 -38.4,-10.2 -40.3,5.2 -42.8,38.7 -45.4,67.1 -24.3,264.7 -43.6,529.4 5.8,793.6 87.4,50.4 185.2,72.5 279.9,103.3 74,24 74.2,24 52.5,95.3 -94,308.8 -182.8,619.7 -344.6,902.6 -1.2,2.1 0.8,5.8 2.7,17.8 312,-230.7 549.4,-516.1 715.6,-891.7 54.4,193.1 121.1,353.3 204.6,520.6 25,-36.5 17.7,-69.6 21.9,-98.8 4.3,-29.6 4.4,-59.8 5.9,-89.7 3.2,-63.1 0.8,-126.7 14.7,-188.9 4.2,-18.8 6.6,-42.8 33.4,-41.7 23.7,1 33,20.5 35.2,41.4 5.2,49.6 11.4,99.3 12.8,149.1 6.8,243.6 120.5,452.5 217.6,669.7 -2.9,-256.7 3.9,-511 60.1,-766.4 149.6,37.2 293.9,74.6 438.9,108.9 207.1,49 414.6,96 622.1,142.9 22.4,5.1 46.1,4 69.3,5.8 28.7,-28.7 30.7,-66.3 28.1,-102.2 -14.9,-205 10.3,-409.9 1.4,-614.9 -1.9,-43 0.2,-86.6 -28.9,-123.1"
         style="fill:#67a830;fill-opacity:1;fill-rule:nonzero;stroke:none"
         transform="matrix(0.13333333,0,0,-0.13333333,0,5461.3333)" />
      <path
         id="path12"
         d="m 9616.59,31799.5 c -22.91,68.5 -35.56,138.9 -35.75,211.1 -0.53,208.6 -0.3,417.2 -0.72,625.8 -0.09,43.1 -0.18,85.9 16.72,126.8 14.64,35.5 -10,45.3 -36.73,52.8 183.98,153.4 381.98,287.8 579.29,422.7 571,390.6 1168.1,738.4 1777.4,1065.4 14.5,7.8 30.1,13.6 45.2,20.4 54.9,-18.5 47.8,-67.5 48.4,-107.9 3.2,-241.6 2.2,-483.2 0.9,-724.8 -0.2,-37.3 -8.8,-72 -29.7,-103.4 -327.5,-190.6 -649,-390.8 -970.1,-592 -420.4,-263.5 -818.8,-557.5 -1211.83,-859.2 -60.57,-46.5 -122.03,-91.9 -183.08,-137.7"
         style="fill:#68aa30;fill-opacity:1;fill-rule:nonzero;stroke:none"
         transform="matrix(0.13333333,0,0,-0.13333333,0,5461.3333)" />
      <path
         id="path13"
         d="m 26540.1,34534.9 c 0.7,288.5 1.4,577.1 2.1,865.6 89.3,-14.5 170.3,-54.2 254.7,-83.5 741.9,-257.7 1453.5,-585.1 2153.1,-939.9 17.3,-8.8 32.6,-21.5 48.8,-32.3 -28.6,-30.9 -18.5,-69.2 -18.6,-104.8 -1.1,-279.5 -1.1,-559 -1.5,-838.5 -177.1,91.5 -355.9,179.8 -530.8,275 -468.2,254.7 -955.2,467.7 -1448,669.1 -153.4,62.7 -311,115.4 -459.8,189.3"
         style="fill:#89ca3c;fill-opacity:1;fill-rule:nonzero;stroke:none"
         transform="matrix(0.13333333,0,0,-0.13333333,0,5461.3333)" />
      <path
         id="path14"
         d="m 11981.6,33388.4 c -0.4,277.4 -0.5,554.7 -1.7,832.1 -0.1,35.1 11,73.3 -18,103.9 205.9,123.3 424.8,220.8 641.4,322.2 579.2,270.9 1167.4,520.7 1768.3,740 15.6,5.7 30,14.4 47.5,11.5 25.9,-35 24.6,-76 18.9,-114.9 -27.1,-184.3 -26.1,-368.1 -0.1,-552.6 6.4,-45.5 1.5,-92.6 1.7,-139 0,-20.3 2.9,-39.6 19.1,-54.2 -200.6,-79.7 -402.1,-157.2 -601.6,-239.6 -600.1,-248 -1179.3,-539.6 -1751.9,-845 -41,-21.9 -82.4,-42.9 -123.6,-64.4"
         style="fill:#8bcd3d;fill-opacity:1;fill-rule:nonzero;stroke:none"
         transform="matrix(0.13333333,0,0,-0.13333333,0,5461.3333)" />
      <path
         id="path15"
         d="m 24141.2,36084.6 c -31.5,-29.1 -21,-67.5 -21.2,-102.7 -0.8,-247.5 -0.7,-495 -0.9,-742.5 -202.8,36.3 -405.8,71.8 -608.5,109.1 -566.6,104.1 -1136.4,182.5 -1712,214.7 -33,1.9 -66.9,0 -97.8,15.7 -28.9,32.1 -32.4,71.9 -32.7,112.2 -1.1,199.3 -1.4,398.7 0.2,598.1 0.4,39.7 1,80.5 33.4,111.1 170.4,10.7 339.3,-12.8 508.2,-26.9 311.5,-26.1 622.1,-62.4 930.8,-113.3 324.7,-53.6 649.2,-108.4 973.8,-163.1 9.3,-1.6 17.8,-8.1 26.7,-12.4"
         style="fill:#89c93c;fill-opacity:1;fill-rule:nonzero;stroke:none"
         transform="matrix(0.13333333,0,0,-0.13333333,0,5461.3333)" />
      <path
         id="path16"
         d="m 16862.3,35238.1 c -2.1,280 -13.2,560.1 -0.7,840.2 127.1,39.8 259.2,55.2 389.4,79.6 394.9,74 792.9,128.2 1191.6,176.1 276.7,33.4 553.9,67.9 833.4,71 35.8,-28.4 35.1,-69.6 35.5,-108.7 2.2,-201.4 1.8,-402.7 0.4,-604 -0.3,-39.8 -2.5,-79.8 -32.8,-111 -124,-27.9 -251.2,-25.2 -376.8,-37.9 -658.7,-66.2 -1313.4,-157.9 -1961,-297 -25.7,-5.5 -52.6,-5.7 -79,-8.3"
         style="fill:#89ca3b;fill-opacity:1;fill-rule:nonzero;stroke:none"
         transform="matrix(0.13333333,0,0,-0.13333333,0,5461.3333)" />
      <path
         id="path17"
         d="m 19279.1,35581.3 c -1,274.6 -2,549.1 -3,823.7 13.3,12.6 30.1,11.6 46.6,12.3 714,29.5 1428,40.1 2142,3.3 79.1,-4 159.7,5.9 237,-20.3 -0.3,-273.8 -0.6,-547.6 -0.9,-821.4 -259,10.2 -517.9,21.8 -777,30.3 -475.6,15.7 -950.9,5.3 -1425.9,-20.7 -72.9,-4 -145.6,-14 -218.8,-7.2"
         style="fill:#68ac33;fill-opacity:1;fill-rule:nonzero;stroke:none"
         transform="matrix(0.13333333,0,0,-0.13333333,0,5461.3333)" />
      <path
         id="path18"
         d="m 36225.8,25997.8 c 18.8,103.9 31.6,209 32.3,314.2 2.7,393 1.1,786.1 1.5,1179.1 0,36.6 2.2,73.2 3.4,109.7 53.3,-46.7 84.4,-109.6 122,-167.6 199.7,-309 382.9,-627.9 571.4,-943.7 32.9,-55.2 21.5,-90.2 -16.7,-128.9 -157.4,-137.2 -296.2,-293 -441.1,-442.6 -48,-49.6 -95.4,-99.8 -149.5,-156.4 -44.3,84.8 -83.8,160.5 -123.3,236.2"
         style="fill:#88c93a;fill-opacity:1;fill-rule:nonzero;stroke:none"
         transform="matrix(0.13333333,0,0,-0.13333333,0,5461.3333)" />
      <path
         id="path19"
         d="m 4717.57,27581.8 c 26.38,-38.5 21.91,-82.4 21.93,-125.6 0.25,-466.3 0.33,-932.5 1.09,-1398.8 0.05,-32.6 -9.45,-66.9 11.82,-97.2 -24.37,-50.1 -48.72,-100.1 -77.74,-159.8 -221.74,226.2 -436.48,445.2 -651.21,664.3 212.45,349.4 419.94,701.9 642.01,1045.4 16.02,24.8 26.63,53.8 52.1,71.7"
         style="fill:#8bca3c;fill-opacity:1;fill-rule:nonzero;stroke:none"
         transform="matrix(0.13333333,0,0,-0.13333333,0,5461.3333)" />
      <path
         id="path20"
         d="m 36219.5,25422.6 c 274.5,278.6 549.1,557.1 823.7,835.7 34.7,9.2 44.7,-15.4 57.1,-39.7 55,-108.3 111,-216.1 166.6,-324.1 -20.4,-57.4 -78.5,-77.8 -117,-117.6 -232.8,-240.1 -467.8,-478.1 -703.3,-715.7 -67.3,-67.9 -128.9,-142 -206.9,-198.9 -42.2,0.7 -45.5,35.3 -45.6,62.2 -0.6,166.4 -26.5,334.4 25.4,498.1"
         style="fill:#88ca44;fill-opacity:1;fill-rule:nonzero;stroke:none"
         transform="matrix(0.13333333,0,0,-0.13333333,0,5461.3333)" />
      <path
         id="path21"
         d="m 3940.67,26280.5 c 27.26,10.3 43.22,-7.6 60.06,-23.8 69.17,-66.9 140.48,-131.6 207.32,-200.7 156.88,-162.2 313.37,-324.6 479.61,-477.4 11.9,-10.9 20.7,-25.2 30.95,-37.9 28.84,-54.8 30.85,-114.1 31.24,-174.3 0.68,-102.8 -4.3,-205.7 8.05,-308.4 3.46,-28.9 15.25,-70.1 -37.23,-74.7 -78.64,56.7 -143.34,128.7 -211.38,196.7 -216.87,216.6 -431.56,435.4 -647.43,653.1 -32.71,33 -63.48,68.8 -108.06,87.3 65.1,118.6 143.05,230.5 186.87,360.1"
         style="fill:#87ca43;fill-opacity:1;fill-rule:nonzero;stroke:none"
         transform="matrix(0.13333333,0,0,-0.13333333,0,5461.3333)" />
      <path
         id="path22"
         d="m 31365.8,20696.4 c -22.7,-49.9 -63.9,-84.8 -101,-122.6 -672.1,-685.3 -1338.8,-1376 -2019.8,-2052.6 -196.3,-194.9 -388.2,-394.3 -582.1,-591.5 -16.3,-16.7 -32.8,-33.2 -49.9,-49.2 -52.4,-49.1 -52.8,-49.2 -102.8,-0.5 -81.1,79.1 -159.8,160.9 -243.4,237.3 -146.3,133.6 -100.1,133.7 -241.1,-5.7 -99.5,-98.5 -195.4,-200.5 -292.8,-301.1 -74.8,-77.4 -75.8,-78.7 2.9,-158.7 93.4,-95.1 189.4,-187.7 283.8,-281.7 18.8,-18.7 35.9,-39 55.4,-60.3 -47,-49.7 -92.3,-97.6 -137.6,-145.5 -78.1,-143.7 -207.9,-240.3 -324,-347.9 -202.9,-188.1 -400.8,-380.7 -585,-587.1 -24.4,-27.3 -48.6,-54.8 -74.5,-80.7 -77.7,-77.8 -156.1,-155 -233.2,-233.4 -1245.1,-1266.4 -2501.8,-2521.5 -3756.9,-3778 -383.6,-384 -768.5,-766.8 -1153.7,-1149.2 -106.2,-105.3 -218,-205.3 -314.7,-319.5 -72.7,-85.6 -157.7,-121.1 -271.2,-115.4 -156.2,7.8 -156.4,1.7 -175.5,-153.7 -2.8,-23.2 -4.9,-46.5 -3.5,-69.8 21.5,-335.7 -12.7,-671.3 -0.8,-1007.1 4.1,-115.1 3.1,-117.2 118.4,-117.5 196.6,-0.4 393.2,2.6 589.8,-1.4 79.6,-1.5 104.1,29.3 103.6,105.9 -2.5,373.2 -3.1,746.5 0.4,1119.7 0.7,84.9 -30.8,110.7 -111.6,107.7 -57,-2.1 -139.1,-28.9 -165.5,31.8 -29.9,68.4 52.3,106 94.2,148.6 222,225.6 446.8,448.6 670.7,672.4 1302.8,1302.7 2611.9,2599.3 3905.3,3911.2 566.1,574.2 1138.6,1142 1703.1,1717.6 37.4,38.2 76.5,73.9 122,102.1 252.1,223.3 466.3,483.5 703,721.9 398.9,401.8 797.8,803.7 1195.5,1206.7 484.3,490.7 967.4,982.5 1451,1473.9 130.5,-78 193.5,-201.4 230.6,-342.2 66,-111.9 140.2,-219.2 190.2,-339.9 37.2,-52.5 24.5,-98.1 -17.6,-141.4 -69.5,-71.6 -143.6,-138.5 -214.8,-208.2 -520.6,-509.5 -1026.7,-1033.7 -1539.6,-1551 -154.5,-155.8 -308.1,-312.6 -462.8,-468.3 -74.1,-74.5 -121.8,-58.1 -149.1,44.7 3.4,32.9 13.5,69.5 -25.6,87.9 -39.7,18.7 -61.5,-14.7 -84.1,-37.3 -648.2,-647.8 -1305,-1287.2 -1941.4,-1946.4 -567.1,-587.3 -1152.5,-1156 -1724.7,-1738 -62.9,-64 -136.5,-116.6 -200.8,-180 -59.6,-58.9 -65.9,-111.5 -5.7,-170.4 82.2,-96.8 76.6,-120.3 1.2,-219.8 -86,-113.4 -202.2,-198.4 -282.4,-316 -25,-40.2 -61.2,-70.2 -94.5,-102.7 -390.7,-381.6 -768.9,-775.8 -1156.1,-1160.9 -176.6,-175.6 -348.8,-356.5 -521.5,-536.4 -27.2,-28.3 -50.4,-63.2 -92.7,-73 -5.6,-5.7 -11.2,-11.4 -16.8,-17.1 -42.6,-85.2 -120.5,-139 -185.4,-203.4 -91.1,-90.5 -171.5,-192.8 -279.7,-265.4 -38.8,-36.5 -75.9,-74.9 -116.7,-108.9 -41.5,-34.5 -50,-72.3 -34.4,-123.6 41.8,-137.4 58,-279.2 68.6,-422.3 18.9,-254.9 -9.2,-504.9 -68.3,-752.3 -96.5,-367.6 -262,-697.7 -530,-971.7 -358.2,-380.6 -798.2,-612.1 -1313.8,-679.5 -815.3,-106.5 -1507.2,142.3 -2045.6,772.5 -319.6,374.1 -484.9,814.6 -517.5,1305.6 -17.6,264.7 -9,526.5 75,780.5 18.6,56.1 -5.8,86.1 -40.6,121.1 -307.5,309.9 -614.8,620.2 -920.8,931.7 -953.1,970.1 -1904.5,1941.9 -2858.8,2910.8 -795.2,807.5 -1593.4,1612 -2390.5,2417.6 -654.1,661.1 -1308.5,1321.9 -1963.1,1982.4 -312.03,314.9 -624.81,629.1 -937.49,943.3 -77.21,77.6 -78.26,77.6 -24.53,176.8 55.26,102.2 111.93,203.5 167.99,305.2 27.53,110.4 93.83,200.7 152.66,294.8 15.7,25.1 34.62,49.1 69.86,46.6 380.91,-357.5 746.31,-730.7 1112.81,-1102.8 501.8,-509.8 1005.4,-1017.9 1512.7,-1522.2 306.8,-304.9 592.5,-630.3 905.3,-929.2 40.7,-38.9 75.6,-83.7 122.5,-116 142.2,-80.5 237.8,-211.2 348,-325.6 41.3,-43 78.6,-90.3 121,-132.7 261.6,-261.5 522.9,-523.3 784.7,-784.5 681.5,-680.1 1354.1,-1369 2028.8,-2055.7 462.3,-470.5 938,-928 1390.4,-1407.7 338.5,-358.9 697.7,-697 1036,-1055.4 146.3,-155.1 294.4,-308.2 443.2,-460.7 24.9,-25.4 65,-52 49.3,-90.8 -15.8,-39.2 -63.1,-30 -98.4,-29.4 -179.9,3.3 -174.7,-1 -174.5,-177.5 0.5,-343.2 -0.3,-686.4 0.4,-1029.6 0.2,-135.9 8.1,-143.5 139.2,-143.7 183.2,-0.3 366.5,2.1 549.7,-1.2 70.8,-1.2 102.6,18.7 102.1,95.5 -2.5,386.5 -2.3,773 -0.1,1159.5 0.4,75 -29.6,107.7 -100.9,95.6 -178.5,-30.3 -300.2,49.7 -393.4,192.7 -23.6,36.1 -58.2,63.9 -88.8,94.5 -402.9,403 -813.4,798.6 -1206.7,1210.7 -418.7,438.7 -860.2,854.9 -1275.8,1296.1 -393.2,417.3 -811.2,809.5 -1206.6,1224 -469.2,491.9 -960.1,962.2 -1429.7,1453.3 -297.1,310.6 -605,610.2 -904,918.7 -27.8,28.7 -58.4,55.1 -70.2,95.5 -64,89.1 -140,167.4 -218.1,243.8 -30.1,29.5 -19.2,46.1 8.2,71.5 107.4,99.4 212.4,201.6 317.1,303.9 51.3,50.1 51,52.3 -2.8,97.6 -132.6,111.7 -252.2,236.8 -373.2,360.6 -83.3,85.2 -70.6,77.9 -145,6.5 -91.2,-87.6 -183.2,-174.3 -274.7,-261.7 -53,-50.5 -54,-51.9 -108.8,3.5 -213,215.3 -424.7,431.8 -637.7,647.2 -624.8,631.8 -1250.1,1263.2 -1874.9,1895 -107.57,108.8 -213.47,219.2 -320.12,328.8 -10.72,28.8 3.9,50.9 18.13,74 403.29,655.1 833.39,1291.5 1347.99,1865.6 297,331.5 592.1,666 931.3,956.9 720.5,683 1507.5,1276 2377.6,1756.6 26.3,14.5 50.4,32.3 75.9,48.2 579.8,315.8 1175,597.9 1794.2,828.3 209.2,77.8 425.5,135.1 631.8,221.1 579.6,183.8 1172.5,308.5 1772.7,400.3 217.2,33.3 435.3,60.6 654.3,80.9 546.2,62.1 1094.6,73.3 1643,60.2 242,-5.8 484.5,-21.3 725.9,-44.5 289.7,-40.4 581.3,-66.7 870.2,-115.8 532.4,-90.4 1059.2,-203.4 1574.9,-364.5 320.4,-111 643.2,-215.4 959.4,-338.8 508.9,-198.6 998.6,-437.8 1477.4,-699.8 476.8,-265.9 932.8,-564.4 1369.5,-891.6 375,-281.1 741.7,-572.8 1078.1,-900.3 232.1,-195.3 425,-429.5 639.2,-642.7 323.4,-321.9 601.1,-683.1 880.1,-1043.1 293.7,-378.9 561.7,-775.1 814.2,-1182.1 20.7,-33.2 49.5,-64.4 40,-109.1"
         style="fill:#f7ab18;fill-opacity:1;fill-rule:nonzero;stroke:none"
         transform="matrix(0.13333333,0,0,-0.13333333,0,5461.3333)" />
      <path
         id="path23"
         d="m 20518,6999.8 c 326.3,0 652.6,0.4 979,-0.3 83.5,-0.2 84.3,-1.9 84.9,-80.4 1.2,-163.1 -1.1,-326.4 3.4,-489.4 1.4,-50.6 -29.1,-69.2 -60.1,-94.1 -277.6,-223.1 -555.1,-446.5 -832,-670.5 -46.6,-37.7 -91.7,-77.3 -135.1,-118.5 -24.6,-23.2 -41.3,-22.3 -66.9,0 -314,273.2 -652.5,516.5 -966.8,789.5 -44.3,38.5 -65.1,75.7 -63.7,135.1 3.5,146.4 -0.1,293 -0.3,439.5 -0.1,84.6 0.3,85.8 88.6,86 323,0.6 646,0.2 969,0.2 0,1 0,1.9 0,2.9"
         style="fill:#fefefd;fill-opacity:1;fill-rule:nonzero;stroke:none"
         transform="matrix(0.13333333,0,0,-0.13333333,0,5461.3333)" />
      <path
         id="path24"
         d="m 36219.5,25422.6 c 14.3,-11 20.2,-25.4 16.7,-43.3 -31.3,-160.5 -9.6,-322.7 -14.7,-484 -0.5,-14 6.8,-25 18.2,-33 -7.3,-23.6 -27.4,-37.2 -43.5,-53.5 -770.4,-777.6 -1540.9,-1555.1 -2311.6,-2332.3 -13.8,-13.9 -30.6,-24.7 -46,-37 -54.3,-12.2 -75.1,25.8 -78.2,65.3 -10.8,136.3 -20.7,273.1 0.2,409.5 208.5,219.6 420.3,435.9 633.2,651.3 582.6,589.3 1162.5,1181.4 1743.4,1772.4 27.6,28.1 54.9,56.4 82.3,84.6"
         style="fill:#69ac39;fill-opacity:1;fill-rule:nonzero;stroke:none"
         transform="matrix(0.13333333,0,0,-0.13333333,0,5461.3333)" />
      <path
         id="path25"
         d="m 4720.67,24983.3 c 16.79,9.4 22.46,25.5 17.77,42 -35.2,123.1 -16.02,249.1 -17.04,373.6 -0.39,47.2 -28.07,94.4 -2.78,141.8 111.53,-109.7 225.37,-217.1 334.22,-329.4 660.95,-681.8 1338.19,-1347.4 2003.93,-2024.4 48.96,-49.8 95.88,-101.6 143.75,-152.5 19.86,-138.9 7.33,-278.2 3.65,-417.2 -1.27,-48.1 -26.93,-74.5 -79.61,-55.7 -41.56,17.6 -66.27,54.8 -95.84,85.5 -485.18,503.4 -985.29,991.9 -1476.71,1489.1 -259.76,262.8 -520.95,524.2 -781.23,786.5 -18.45,18.6 -42.26,33.2 -50.11,60.7"
         style="fill:#67ad37;fill-opacity:1;fill-rule:nonzero;stroke:none"
         transform="matrix(0.13333333,0,0,-0.13333333,0,5461.3333)" />
      <path
         id="path26"
         d="m 7124.56,22561.5 c 40.29,10 60.7,28.5 57.35,77.3 -5.91,86 -0.3,172.7 -2.15,259.1 -1.01,47.1 4.66,92.4 20.73,136.5 243.73,-246 488.59,-490.8 730.9,-738.1 531.62,-542.6 1059.57,-1088.8 1599.81,-1623 33.06,-32.6 68.33,-63.7 91.8,-104.8 -68.66,-63.5 -101.12,-151.1 -151.32,-226.9 -24.87,-37.6 -36.37,-83.4 -71.26,-114.6 -4.31,28.4 -23.72,46.1 -42.95,64.9 -554.33,542.5 -1093.09,1100.3 -1635.35,1654.7 -174.55,178.5 -351.27,354.8 -526.27,532.8 -25.32,25.8 -56.54,47 -71.29,82.1"
         style="fill:#88cc43;fill-opacity:1;fill-rule:nonzero;stroke:none"
         transform="matrix(0.13333333,0,0,-0.13333333,0,5461.3333)" />
      <path
         id="path27"
         d="m 33760.6,22914.3 c 32,-86.6 15.8,-176.8 19.4,-265.6 1.6,-39.6 0.6,-79.4 0.5,-119.2 -0.2,-42.8 16,-74.7 58.1,-90 -14,-31.6 -42.4,-50.8 -65.4,-74.3 -558,-567.5 -1116.6,-1134.4 -1674.6,-1701.9 -130.7,-133 -259.9,-267.5 -389.8,-401.3 -22.9,-23.7 -50.3,-44.5 -53.9,-81.1 -52.1,91.4 -101.8,184.1 -166.6,267.7 -20.1,26 -35,56.1 -64,74.5 94.6,124.9 203.6,237 313.2,348.3 640.1,649.8 1280.4,1299.4 1921,1948.6 32.5,32.9 60.7,70.9 102.1,94.3"
         style="fill:#87c93f;fill-opacity:1;fill-rule:nonzero;stroke:none"
         transform="matrix(0.13333333,0,0,-0.13333333,0,5461.3333)" />
      <path
         id="path28"
         d="m 25181,12997.1 c -3.2,30 15.7,48.7 34.3,67.7 85,87 171.2,172.5 248.8,266.8 72.2,87.8 75.9,104.9 -4.9,186.4 513.9,521.1 1033.4,1036.6 1550,1555.1 784.8,787.9 1556.5,1588.8 2349.6,2368.5 34.3,33.7 60.4,82.1 118.5,83.3 24.2,-90.5 54.4,-102.3 115.1,-41.7 355.6,354.8 718.9,702.4 1063.1,1067.9 298.8,317.2 613.7,617.8 917.4,929.8 66.9,68.8 147.9,123 212.8,194.8 42.8,47.4 78.8,96.1 59.4,165.3 61.9,-89.4 61.6,-89.1 -6.1,-156 -826.5,-816.9 -1641.4,-1645.4 -2454.3,-2475.8 -612.6,-625.7 -1233.7,-1243.1 -1850.7,-1864.5 -579.4,-583.7 -1158.6,-1167.6 -1737.7,-1751.6 -16.4,-16.5 -30.9,-34.7 -46.2,-52.2 -161,-161.6 -321.9,-323.4 -484.4,-483.6 -24.3,-24 -40.6,-62.8 -84.7,-60.2"
         style="fill:#d7b645;fill-opacity:1;fill-rule:nonzero;stroke:none"
         transform="matrix(0.13333333,0,0,-0.13333333,0,5461.3333)" />
      <path
         id="path29"
         d="m 13679,13999.8 c -4,-25.4 -24.8,-38.8 -41,-54.7 -111.8,-109.7 -224.4,-218.4 -336.3,-328 -69,-67.6 -136.3,-136.9 -205.7,-204 -40.1,-38.7 -61.1,-33.3 -113.8,23 -43.8,46.8 -44.6,54.7 -0.2,96.7 142.8,135 286.7,268.9 429.1,404.2 59.4,56.4 60.2,59.5 3.6,117.2 -207.6,211.8 -416.3,422.4 -625.1,632.9 -290.9,293.3 -581.6,586.8 -873.7,878.8 -376.9,376.9 -755,752.6 -1133,1128.4 -60.6,60.3 -61.3,59.1 -123,-1.2 -135.8,-132.6 -271.8,-265.1 -408.2,-397.2 -20.4,-19.7 -39.3,-54.8 -74,-31.7 -32.7,21.6 -66,47 -78.1,87.6 -5.2,17.6 10.4,29 22.7,40.8 172.5,166.5 345.3,332.6 516.2,500.6 82.3,80.9 81.3,83.3 161.3,3.3 315.9,-315.4 631.3,-631.4 946.9,-947.1 631.1,-631.6 1262.3,-1263.1 1893.3,-1894.8 15.8,-15.8 39.4,-26.9 39,-54.8"
         style="fill:#fbfdfd;fill-opacity:1;fill-rule:nonzero;stroke:none"
         transform="matrix(0.13333333,0,0,-0.13333333,0,5461.3333)" />
      <path
         id="path30"
         d="m 30354,16745.1 c -158.7,-157.9 -305.4,-303.1 -451.2,-449.2 -744.2,-745.4 -1488.1,-1491 -2232.2,-2236.5 -60.3,-60.4 -60.7,-60.2 -4.5,-123.8 130.2,-147.5 267.8,-287.9 408.5,-425.3 17.4,-16.9 52.6,-30.2 36.2,-62.8 -18,-35.9 -48.3,-64.4 -84.4,-82.5 -16,-8.1 -29.8,8 -41.1,21 -173.3,198.6 -370.2,374.1 -553,563.4 -39.7,41.1 -28.5,60.5 6.2,95.1 498.1,496.5 995.1,994.1 1491.4,1492.4 446.9,448.7 892.6,898.6 1338.9,1347.9 85.4,86 66.2,84.5 150.2,2.4 174,-170.1 329.1,-358.8 512.1,-519.7 34.2,-30.1 33.7,-52.8 6.4,-82.7 -6.8,-7.4 -13.2,-15 -20.2,-22.2 -47.9,-49.1 -57,-49.7 -103.4,-2.1 -144.1,148 -288,296.3 -431.6,444.8 -9.2,9.6 -15.7,21.8 -28.3,39.8"
         style="fill:#f7fbfc;fill-opacity:1;fill-rule:nonzero;stroke:none"
         transform="matrix(0.13333333,0,0,-0.13333333,0,5461.3333)" />
      <path
         id="path31"
         d="m 15044.8,11619.4 c 113.6,-14.5 203.5,-76.7 309.8,-145.5 -55.4,217.2 -106.2,416.6 -157,615.9 189.2,-150 311.4,-344.3 408.7,-565.3 75.1,179.3 159.2,339.6 306.1,470.9 14,-36.5 2.1,-63.6 -4.3,-89.7 -50.4,-204 -86.3,-409.8 -78.5,-620.8 1.7,-48.7 -17.5,-65.3 -62.5,-67.7 -132.9,-6.9 -265.7,-15.3 -398.5,-23.7 -50.3,-3.2 -90,7.2 -113.1,59.7 -53.7,122.4 -122.9,235.8 -206.6,340.2 -3.4,4.4 -2.1,12.5 -4.1,26"
         style="fill:#83cc46;fill-opacity:1;fill-rule:nonzero;stroke:none"
         transform="matrix(0.13333333,0,0,-0.13333333,0,5461.3333)" />
      <path
         id="path32"
         d="m 26597.3,12630.7 c -36.3,-199.8 -67.1,-377.4 -84.2,-573.8 110.9,59.9 184,147.3 294.4,178.1 3,-39.5 -20.6,-60.7 -33.2,-85.9 -52.3,-104.2 -105.9,-208 -138.1,-320.5 -11.2,-39.3 -31.2,-56 -69.8,-55.3 -149.9,2.5 -299.9,5.2 -449.8,7.1 -39.4,0.5 -61.5,17 -67.4,57.4 -31.3,215.1 -97,421 -166.9,625.9 -5.5,16.2 -5,32.7 10.8,56.4 157.4,-106.2 260.6,-258.4 363.8,-431.4 69.6,211.6 162.3,390.5 340.4,542"
         style="fill:#7dc647;fill-opacity:1;fill-rule:nonzero;stroke:none"
         transform="matrix(0.13333333,0,0,-0.13333333,0,5461.3333)" />
      <path
         id="path33"
         d="m 35716.1,23248.3 c 80,-64.5 144.5,-143.6 206.5,-225.3 59.9,-78.8 103.9,-167.3 156.6,-267.6 72.1,223 171.3,414.8 333.7,594.8 12.3,-67.8 -15.7,-111.2 -21.8,-156.3 -6.6,-49.3 -22.6,-97.2 -30.8,-146.4 -8.2,-49.1 -12.7,-98.9 -17.3,-148.5 -4.6,-49.5 -7.3,-99.1 -12,-166.7 105.5,89.6 200.4,170.3 317.9,216.7 20.1,-30.4 -3.4,-46.9 -15.3,-63.8 -76.6,-109.5 -142.9,-224.8 -196.1,-347.3 -18.4,-42.4 -44.2,-59.8 -91,-60.2 -140.1,-1 -279.3,14.3 -419,19 -53.5,1.8 -55.6,40.2 -61.3,74.8 -26.3,160.9 -61.9,319.5 -109.2,475.5 -19,62.9 -37.7,125.9 -56.6,188.8 5.2,4.2 10.5,8.3 15.7,12.5"
         style="fill:#82cb54;fill-opacity:1;fill-rule:nonzero;stroke:none"
         transform="matrix(0.13333333,0,0,-0.13333333,0,5461.3333)" />
      <path
         id="path34"
         d="m 7798.49,20371.2 c -22.15,-179.6 -20.51,-347.4 -0.82,-533.8 85.49,96.7 169,165.6 267.33,215.6 20.72,-29.5 -3.4,-46.4 -13.33,-64.7 -63.73,-117.3 -118.84,-238.1 -145.19,-369.6 -9.2,-46 -28.26,-72.4 -76.78,-74.1 -126.49,-4.6 -251.82,-20.6 -376.83,-39.4 -41.63,-6.2 -70.69,4.9 -82.65,50 -52.34,197.6 -148.55,376.6 -236.69,559.1 -4.18,8.6 -5.27,18.8 -7.9,28.6 97.9,-3.6 245.6,-122.3 391.93,-315.8 31.04,20.4 30.55,55.3 37.7,84.5 32.77,133.5 86.87,257.9 158.39,374.9 18.56,30.4 33,65.1 84.84,84.7"
         style="fill:#80ca4e;fill-opacity:1;fill-rule:nonzero;stroke:none"
         transform="matrix(0.13333333,0,0,-0.13333333,0,5461.3333)" />
      <path
         id="path35"
         d="m 33626.3,20231.2 c -18.6,-178.9 -41,-355.7 -25,-545 101.6,52.7 163.7,149.8 285.3,196.6 -59,-110.3 -110.2,-202.2 -140.9,-302.9 -6.8,-22.2 -17,-43.5 -23.2,-65.8 -27.3,-99.7 -26.8,-104 -129.6,-107.6 -119.6,-4.2 -239.4,-0.5 -359.1,0.8 -39.1,0.4 -68.8,11.6 -80.5,57.3 -55,216.1 -134.5,423.7 -224.1,627.5 -1.1,2.3 1.1,6 5.1,23.2 91.4,-55 155.8,-133.2 226.8,-202.8 71.1,-69.7 122.7,-155.5 189.1,-242.4 53,211.9 122.4,405.6 276.1,561.1"
         style="fill:#81cb50;fill-opacity:1;fill-rule:nonzero;stroke:none"
         transform="matrix(0.13333333,0,0,-0.13333333,0,5461.3333)" />
      <path
         id="path36"
         d="m 4950.77,22859.9 c 56.8,203.9 117.76,384 252.91,544.3 19.13,-62.7 -6.21,-105.7 -10.8,-149.6 -17.4,-166.3 -15.24,-332.1 0.02,-498.1 8.34,-90.6 8.1,-92.5 -79.39,-117.7 -127.73,-36.8 -256.15,-71.2 -383.91,-107.9 -34.25,-9.8 -66.46,-18.3 -84.31,23.3 -45.8,106.7 -120.82,189.6 -209.64,261.7 -3.95,3.2 -3.74,11.6 -8.96,29.6 92.27,-0.4 173.88,-32.5 273.81,-60.3 -63.8,183.6 -145.31,347.2 -226.42,535.5 210.08,-113.4 358.78,-258 476.69,-460.8"
         style="fill:#7eca4f;fill-opacity:1;fill-rule:nonzero;stroke:none"
         transform="matrix(0.13333333,0,0,-0.13333333,0,5461.3333)" />
      <path
         id="path37"
         d="m 25181,12997.1 c 164.5,161.1 328.9,322.5 494,483.1 23,22.4 39.1,54.2 75.1,60.7 -17.2,-41.4 -52.5,-68.2 -82.6,-98.7 -430.1,-435 -860.6,-869.7 -1291.4,-1304.1 -315.9,-318.6 -632,-637 -949.3,-954.3 -25.8,-25.8 -44.1,-69.4 -93.9,-60 213.9,232.3 441.9,450.7 663.7,675.3 382.9,387.9 768.1,773.7 1152.2,1160.5 11.6,11.6 21.5,25 32.2,37.5"
         style="fill:#38445a;fill-opacity:1;fill-rule:nonzero;stroke:none"
         transform="matrix(0.13333333,0,0,-0.13333333,0,5461.3333)" />
      <path
         id="path38"
         d="m 22170.2,8259.1 c 48.7,62.9 99,124.6 145.7,189 155.4,214.3 277,445.7 351.5,700.9 8.1,27.7 7.6,60.3 32.8,81.8 5.4,-26.8 1.5,-52.9 -5.9,-78.7 -89.4,-311.1 -238.2,-590.6 -447.7,-837.3 -19.9,-23.6 -35.6,-58.6 -76.4,-55.7"
         style="fill:#3d444f;fill-opacity:1;fill-rule:nonzero;stroke:none"
         transform="matrix(0.13333333,0,0,-0.13333333,0,5461.3333)" />
      <path
         id="path39"
         d="m 22851,10637.9 c 151.4,159.9 305,317.6 465.1,468.8 12.1,-23.3 -4.3,-37.9 -17.8,-51.5 -128.9,-129.8 -258.1,-259.3 -387.6,-388.5 -16.2,-16.1 -32.4,-34.7 -59.7,-28.8"
         style="fill:#38445a;fill-opacity:1;fill-rule:nonzero;stroke:none"
         transform="matrix(0.13333333,0,0,-0.13333333,0,5461.3333)" />
      <path
         id="path40"
         d="m 11997.4,23622.3 c -30.9,-58 -89.1,-88.3 -134.2,-131.8 -215.7,-207.7 -421.5,-425.1 -623.8,-645.4 -253.9,-276.6 -491.5,-567.3 -719.6,-865.7 -268.9,-351.6 -501.4,-727.5 -738.63,-1100.4 -30.25,-47.5 -60.71,-95 -91.14,-142.4 -46.33,25.8 -76.42,67.9 -108.53,107.9 -20.28,135 -33.11,271.2 -33.17,407.2 -1.62,3365 -0.63,6729.9 -1.49,10094.8 -0.01,36.9 0.71,73.3 13.46,108.4 172.47,162.6 364.07,301.2 554,441.8 565.1,418.3 1143.8,816.1 1756.7,1162.2 28.8,16.3 58.8,30.7 88.2,46 48.5,-10 46,-51.2 50.8,-86.3 5.3,-39.6 2.8,-79.8 2.8,-119.8 0.1,-3039.5 0,-6078.9 0,-9118.3 0,-53.3 3.3,-106.8 -15.4,-158.2"
         style="fill:#67ab30;fill-opacity:1;fill-rule:nonzero;stroke:none"
         transform="matrix(0.13333333,0,0,-0.13333333,0,5461.3333)" />
      <path
         id="path41"
         d="m 31365.8,20696.4 c -378.3,623.5 -803.8,1213.3 -1267.7,1775.7 -215.9,261.9 -444.5,512 -685.4,751.1 -146.1,145.1 -288.9,293.4 -433.2,440.2 -39.1,56.3 -32.2,120.8 -32.2,183.8 -0.3,853.1 -0.2,1706.2 -0.2,2559.4 0,2176.1 -0.3,4352.3 1.7,6528.5 0,63.4 -32.9,142.5 49.7,186.8 129.5,-60.6 248.6,-139.7 371.9,-211.3 697.3,-404.6 1345.5,-879.5 1975.2,-1380.9 12.9,-10.3 24.3,-22.4 36.5,-33.7 36.6,-57.1 30.6,-121.3 30.7,-184.4 0.1,-919.8 0.1,-1839.5 0.1,-2759.3 0,-2196.1 -2.9,-4392.2 2.9,-6588.2 0.9,-352.7 19.2,-705.7 17.2,-1058.7 -0.3,-57 0.3,-113.7 -31.4,-164.5 -6.3,-19.4 -18.6,-33.9 -35.8,-44.5"
         style="fill:#68ab30;fill-opacity:1;fill-rule:nonzero;stroke:none"
         transform="matrix(0.13333333,0,0,-0.13333333,0,5461.3333)" />
      <path
         id="path42"
         d="m 11997.4,23622.3 c -32.1,37.9 -16.6,83.1 -16.7,124.7 -0.8,2881.5 -0.7,5763 -0.7,8644.6 0,203.2 0.5,406.4 -0.5,609.6 -0.1,35.3 11.7,74.2 -20.3,103.7 360.5,214.7 733.7,405.8 1109.9,590.9 436.6,214.7 889,393.1 1339.8,575.1 9,3.7 19.3,4.1 29,6 13,-20.7 15.2,-44.1 14.3,-67.4 -14.3,-369.7 34.4,-739 15.6,-1107.6 -11.8,-230.3 3,-458.3 4.6,-687.4 6.1,-928.8 -44.3,-1857.4 -17.4,-2785.9 24.3,-838.9 15.1,-1677.6 15.3,-2516.4 0.1,-345.8 -24.3,-691.6 -18.6,-1037.9 3.1,-186 33.4,-371.3 14.3,-558.1 -3.8,-36.9 -3.1,-73 -25.5,-104.5 -109.3,-63.3 -219.8,-124.6 -327.7,-190.3 -452.6,-275.9 -889.5,-574.6 -1304.6,-904.7 -250.3,-199.1 -490.6,-409.6 -726.4,-625.5 -26.8,-24.5 -48.4,-55.7 -84.4,-68.9"
         style="fill:#87ca3b;fill-opacity:1;fill-rule:nonzero;stroke:none"
         transform="matrix(0.13333333,0,0,-0.13333333,0,5461.3333)" />
      <path
         id="path43"
         d="m 28998.5,33121.9 c -31.3,-34.2 -17.7,-76.2 -17.7,-114.7 -0.7,-2465.1 -0.7,-4930.1 -0.8,-7395.1 -0.1,-649.6 -0.3,-1299.2 -0.4,-1948.7 -127.9,111.2 -256.6,221.4 -383.4,333.7 -269.3,238.6 -555.9,455.6 -846.5,666.6 -323.2,234.7 -655.2,456.6 -1001,657.2 -69,40 -145.3,67.7 -206.2,121.2 -44.8,54.3 -35,119.6 -35.1,182.1 -0.5,789.5 -0.3,1578.9 -0.3,2368.4 0,2032 -0.2,4063.9 0.8,6095.9 0,64.6 -17.5,134.5 33.8,191 151.3,-40.2 294.3,-103.3 437.9,-163.4 632,-264.7 1249.7,-559.7 1850.4,-889.7 57.9,-31.8 118,-60.5 168.5,-104.5"
         style="fill:#87ca3b;fill-opacity:1;fill-rule:nonzero;stroke:none"
         transform="matrix(0.13333333,0,0,-0.13333333,0,5461.3333)" />
      <path
         id="path44"
         d="m 14440.5,25411.7 c -19,128.6 11.7,258.1 -2.8,385.7 -35.6,312.4 -25.3,626 -13.4,937.6 31.4,822.6 22.5,1645.3 9,2467.3 -10.1,619.3 -17.2,1238.6 -8,1857.4 7.2,479.2 10.6,958.4 14.3,1437.6 1.1,139.6 -39.3,278.8 -16.5,417.4 28.4,172.7 26.1,346.8 12,517.5 -20.2,243.1 -7,485.5 -14.6,728 -1.3,39.8 -5.1,80.3 17.4,116.7 248,104.3 502.2,191.3 759.2,270 415.6,127.3 829.8,259.9 1253.2,359.9 122.5,29 246.4,52.3 369.7,78.1 55.4,11.3 53.5,-32 51.3,-62 -16.8,-229.4 38.7,-458.3 4.2,-687.7 -5.5,-36.2 -2.9,-73.2 -2.9,-109.8 -0.1,-136.6 1.1,-273.2 -0.2,-409.8 -14.7,-1505.5 30.6,-3010.6 20.5,-4516.1 -1.4,-213.1 -33.9,-425.1 -19.9,-638.5 42.3,-645.6 9.2,-1291.9 19,-1937.8 0.9,-55.8 8.9,-114.4 -31.4,-162.8 -167.4,-74.2 -344.5,-121.2 -516.3,-183 -608,-218.5 -1194,-485.5 -1761.4,-794 -46.7,-25.3 -94.9,-47.8 -142.4,-71.7"
         style="fill:#66aa30;fill-opacity:1;fill-rule:nonzero;stroke:none"
         transform="matrix(0.13333333,0,0,-0.13333333,0,5461.3333)" />
      <path
         id="path45"
         d="m 26541.7,34279.5 c -0.6,-649.8 -1.7,-1299.6 -1.7,-1949.4 -0.2,-2252.7 0,-4505.4 0.2,-6758.1 0,-43.3 1.4,-86.6 2.2,-129.9 -63.5,21.5 -117.6,61.1 -176.5,91.6 -446.2,230.7 -896.3,453 -1367.6,629.6 -277.2,103.7 -556.9,199.8 -837.6,293.2 -15.4,5.1 -29.8,13.3 -44.8,20 -42.1,63.5 -28.2,135.4 -28.2,204.3 -0.7,2597.8 -0.6,5195.5 -0.6,7793.3 0,129.9 -1,259.8 0.6,389.7 0.6,45.9 -5,94.3 31.5,132.2 126.1,-11.9 246.9,-49.6 369.5,-77.7 681.3,-156.3 1345.9,-367.2 2000,-612.4 18.4,-6.9 35.4,-17.5 53,-26.4"
         style="fill:#67ac30;fill-opacity:1;fill-rule:nonzero;stroke:none"
         transform="matrix(0.13333333,0,0,-0.13333333,0,5461.3333)" />
      <path
         id="path46"
         d="m 16860.6,26460.4 c -0.5,602.6 0,1205.3 -1.9,1808 -0.5,175.8 -27.4,350.8 -18.3,527.3 40.4,791.4 30.6,1583.9 13.6,2375.1 -21.4,995.1 -1.8,1989.8 -13.1,2984.7 -0.6,56.3 -0.4,112 13.7,168.2 10.2,40.9 10.2,87.2 2.9,129.1 -29,165.3 -17.6,331.2 -11.5,497 0.9,22.9 -11.3,28 -26,35.1 275.9,72.5 557.2,119.2 837.1,171.9 470.4,88.5 946.9,130.3 1422.4,177.9 65.9,6.6 132.8,3.4 199.2,4.7 37.9,-41 33.4,-92.4 33.7,-141.9 1,-173.2 0.4,-346.3 0.4,-519.5 0,-2450.7 0,-4901.5 0.1,-7352.3 0,-89.8 -2.3,-179.7 9.7,-269.3 5.8,-44 4.4,-87.5 -40.7,-114.4 -442.2,-51.9 -883.6,-110.4 -1319.5,-203.1 -344.7,-73.4 -688.1,-152.8 -1025,-257.8 -25.3,-7.9 -51.2,-13.9 -76.8,-20.7"
         style="fill:#85c93a;fill-opacity:1;fill-rule:nonzero;stroke:none"
         transform="matrix(0.13333333,0,0,-0.13333333,0,5461.3333)" />
      <path
         id="path47"
         d="m 24119.2,34996 c 0.3,-973.3 0.8,-1946.6 0.8,-2919.9 0.1,-1799.9 0,-3599.9 -0.3,-5399.8 0,-66.6 -2.4,-133.2 -3.7,-199.8 -205,55.6 -409,115.2 -615.2,166 -416.1,102.3 -837,180 -1261.3,240.4 -174.2,24.9 -348.8,45.5 -524,60.6 -12.7,1.1 -24.9,8.1 -37.3,12.3 -11.3,39 -11.2,78.8 -11.2,118.9 0.6,2679.7 0,5359.3 1.2,8038.9 0,84.1 -5.4,165 -43.9,241 166.7,-0.7 331.5,-25.7 496.8,-42.2 264.8,-26.5 529,-59.4 793,-92.9 396.2,-50.3 788.8,-121.9 1178.4,-210.1 9.4,-2.1 17.8,-8.8 26.7,-13.4"
         style="fill:#87c93b;fill-opacity:1;fill-rule:nonzero;stroke:none"
         transform="matrix(0.13333333,0,0,-0.13333333,0,5461.3333)" />
      <path
         id="path48"
         d="m 31401.6,20740.9 c -0.8,286.6 4.1,573.3 -3.3,859.7 -42,1632.2 -10.5,3264.5 -16.8,4896.7 -6.3,1632.9 -1.2,3265.9 -1,4898.8 0,33.4 1,66.7 1.5,100 152.2,-107.6 291.2,-231.1 432.6,-351.7 681.8,-581.9 1311.4,-1216.2 1900.1,-1891.6 23.9,-27.4 50.9,-52.6 65.8,-86.8 37.3,-64 32.1,-134.7 32.1,-204.5 0,-1565.6 1.1,-3131.2 -1.4,-4696.8 -0.3,-180.2 33.4,-358.7 20.6,-538.5 -12.9,-182.4 -11.8,-365.5 -32.8,-547.3 -5.5,-8.2 -9.8,-17.4 -16.6,-24.3 -785.5,-798.9 -1571.2,-1597.6 -2357.1,-2396.1 -6.8,-6.9 -15.7,-11.8 -23.7,-17.6"
         style="fill:#89ca3b;fill-opacity:1;fill-rule:nonzero;stroke:none"
         transform="matrix(0.13333333,0,0,-0.13333333,0,5461.3333)" />
      <path
         id="path49"
         d="m 21624.3,35354.6 c 75.3,-29.9 75.5,-29.9 75.5,-111.5 0,-2724.6 0.1,-5449.2 -0.5,-8173.9 0,-38.3 13.9,-80.8 -21.1,-113.3 -487.1,34.2 -974.7,54.3 -1462.9,39.6 -275,-8.4 -550.6,-13.1 -824,-50.2 -36,-4.9 -73,-2.4 -109.4,-3.3 13.5,27.5 24.3,57.3 15.2,86.7 -28.2,91.6 -15.9,185.2 -15.9,277.7 -0.7,2624.4 -0.4,5248.8 -0.4,7873.2 0,53.3 -1.4,106.5 -2.1,159.8 147.7,28.4 297.9,31.7 447.1,36.4 503,15.8 1006.3,12.4 1509.4,0.7 129.8,-3 259.4,-14.4 389.1,-21.9"
         style="fill:#66aa30;fill-opacity:1;fill-rule:nonzero;stroke:none"
         transform="matrix(0.13333333,0,0,-0.13333333,0,5461.3333)" />
      <path
         id="path50"
         d="m 9560.3,31454.9 c 30.42,-41.7 19.43,-89.9 19.43,-135.6 0.4,-2114.7 0.18,-4229.5 0.24,-6344.2 0.03,-1248.9 0.93,-2497.8 -0.3,-3746.6 -0.1,-96.8 30.76,-190.4 20.53,-287.6 -3.47,-33 0.75,-66.8 -18.69,-96.4 -45.74,28.8 -76.7,73.1 -113.7,110.8 -538.63,548.4 -1077.42,1096.7 -1613.74,1647.3 -190.4,195.5 -379.76,392 -574.57,583.1 -28.21,27.6 -61.1,51.5 -80.31,87.6 -34.27,61.1 -31.88,128 -31.87,194.8 0.14,1126 0.65,2252.1 -0.31,3378.2 -0.2,242.9 -33.37,485.4 -19.07,728.5 24.65,419.3 17.27,838.9 20.7,1258.4 0.74,89.9 -22.99,178.7 -8.12,268.7 123.16,170.5 269.81,321 412.65,474.1 573.09,614.2 1168.82,1205.3 1815.25,1743.3 56.08,46.7 114.53,90.5 171.88,135.6"
         style="fill:#88ca3b;fill-opacity:1;fill-rule:nonzero;stroke:none"
         transform="matrix(0.13333333,0,0,-0.13333333,0,5461.3333)" />
      <path
         id="path51"
         d="m 33799,23178.9 c -31.1,30.2 -17.1,69 -18.7,104.3 -9.4,202.9 25.2,404.2 20,607.5 -44.8,1758.3 -9.4,3516.8 -19.8,5275.3 145.3,-151.8 274.5,-317.1 403.7,-482.2 647.9,-827.6 1233,-1697.2 1747.5,-2613.9 75,-133.5 148.9,-267.6 224.5,-400.7 37.9,-66.7 39.4,-66.2 -17.2,-123.4 -283.7,-286.6 -567.6,-572.9 -851.2,-859.7 -297.5,-300.9 -595.1,-601.9 -891.9,-903.7 -149.5,-152 -296.8,-306.3 -446.1,-458.7 -48.7,-49.8 -93.4,-104.1 -150.8,-144.8"
         style="fill:#65a930;fill-opacity:1;fill-rule:nonzero;stroke:none"
         transform="matrix(0.13333333,0,0,-0.13333333,0,5461.3333)" />
      <path
         id="path52"
         d="m 7160.52,29101.9 c 27.23,-43 37.81,-91.6 37.97,-140.9 1.15,-352.8 14.13,-706.4 -4.07,-1058.3 -12.21,-236.1 -18.84,-471.9 -11.58,-707 39.45,-1277.4 3.99,-2555.1 16.95,-3832.5 0.3,-30 -0.39,-59.9 -0.61,-89.9 -35.84,19.6 -60.18,52.1 -88.11,80.3 -703.88,709.2 -1407.5,1418.8 -2110.77,2128.7 -56.2,56.7 -109.5,116.3 -164.71,175.2 383.28,733.6 822.74,1443.3 1302.33,2128 311.52,444.8 654.67,865.7 994.09,1289.2 8.14,10.1 18.94,18.2 28.51,27.2"
         style="fill:#68a930;fill-opacity:1;fill-rule:nonzero;stroke:none"
         transform="matrix(0.13333333,0,0,-0.13333333,0,5461.3333)" />
      <path
         id="path53"
         d="m 28074.8,17120.6 c -13.8,-40.1 -50.1,-61 -77.7,-88.8 -514.1,-518.2 -1030.8,-1033.9 -1542.9,-1554 -858.3,-871.6 -1719.5,-1740.3 -2586,-2603.8 -377.7,-376.4 -748,-760.4 -1126.5,-1136 -364.3,-361.6 -734.1,-717.6 -1093.3,-1084.3 -22.4,-22.8 -54,-39.3 -63,-87.6 73.9,-1.3 145.5,-1.7 217,-4.1 72.8,-2.4 75.1,-3.3 75.5,-72 2.1,-413.3 3.5,-826.7 4.1,-1240 0.1,-72.4 -2.2,-74.7 -71.7,-75 -236.7,-1 -473.3,-1 -710,-0.1 -71.8,0.3 -75.5,2.8 -75.3,72.4 0.7,273.2 2.6,546.5 6,819.8 1.8,146.5 -12.2,293 2.4,439.5 6.9,69.4 5,69.7 75.9,71.6 9.9,0.3 20.3,1.6 29.9,-0.3 169.1,-32.9 278.5,47 394.2,166 404.2,415.6 823.3,816.7 1234.7,1225.5 331,328.9 659.2,660.6 988.1,991.6 601.4,605.3 1203.3,1210.2 1803.5,1816.7 621.3,627.8 1240,1258.2 1861.6,1885.7 168.7,170.3 343.9,334.1 516.1,500.9 29.9,-64.5 88.4,-39.1 137.4,-43.7"
         style="fill:#fdfcda;fill-opacity:1;fill-rule:nonzero;stroke:none"
         transform="matrix(0.13333333,0,0,-0.13333333,0,5461.3333)" />
      <path
         id="path54"
         d="m 13320,17039.9 c 26.6,-2.2 38.3,-24.8 54.1,-40.9 1158,-1174.9 2314.4,-2351.4 3473.9,-3524.8 843.3,-853.4 1674.9,-1718.3 2525.5,-2564.4 89.8,-89.3 179,-179.4 263.9,-273.3 42.1,-46.6 87.5,-66.6 149,-60.5 46.3,4.7 93.2,3.4 139.8,4.5 89,2.1 89.7,2.1 90.5,-84.5 1.3,-143.3 1.3,-286.7 2.6,-430 2.3,-256.6 5.1,-513.1 7.8,-769.7 0.2,-20 -0.8,-40.1 0.5,-60 2.7,-41.7 -14.5,-60.6 -57.8,-59.7 -79.9,1.7 -159.9,0.3 -239.9,0.6 -156.7,0.7 -313.3,3.6 -469.9,1.3 -53.4,-0.8 -72.2,20.8 -72.2,69.7 0.1,59.9 -1.1,119.9 -1.2,179.9 -0.9,349.9 -2.1,699.9 -2.1,1049.8 0,96.9 1.8,96.8 101.3,98.8 56.6,1.2 113.1,2.5 169.7,4 2.7,0.1 5.3,2.7 14,7.4 -10.4,35.8 -41.4,57 -65.3,81.7 -160.2,165 -321.3,329.1 -482.5,493 -584.2,594 -1168.2,1188.2 -1753.1,1781.5 -519.4,526.9 -1040.2,1052.4 -1560.1,1578.8 -630,637.8 -1260.2,1275.4 -1889.4,1914 -149.5,151.8 -295.3,307.3 -442.8,461.2 37.8,3.8 50.5,28.3 40.1,60.2 -9.4,29.1 -14,54.9 3.6,81.4"
         style="fill:#fdfce2;fill-opacity:1;fill-rule:nonzero;stroke:none"
         transform="matrix(0.13333333,0,0,-0.13333333,0,5461.3333)" />
      <path
         id="path55"
         d="m 19451.7,22794.5 c 19.5,0.6 31.2,-10.4 41.7,-24.1 93.9,-123.6 212.3,-220.1 344,-299.4 160.4,-96.4 332.2,-161.4 518.8,-193.5 353.5,-61 663.8,47.5 954,232.2 94.8,60.3 168.1,151.3 241.6,237.6 57,66.9 59.1,69.9 121.5,8.2 189.5,-187.4 376.7,-377.3 567.3,-563.7 209.4,-204.9 411.9,-416.5 627.3,-615.8 187.8,-173.8 354.5,-370.4 538.7,-548.5 881.3,-852.5 1737.3,-1730.6 2612.2,-2589.5 125.2,-123 247.3,-251.4 388.3,-358.6 61.6,-46.9 59.6,-54.9 17.5,-123.2 -167.6,-272 -213.9,-566.1 -168.7,-880.2 28.3,-197.4 85.9,-381.6 199.1,-546.8 3.7,-5.5 6.2,-11.9 10.1,-17.2 82.4,-114.4 81.8,-113.7 -21.8,-217.4 -1298.3,-1298.6 -2596.2,-2597.4 -3894.4,-3896 -285,-285.2 -570.3,-570.2 -855.7,-855 -67.2,-67.1 -68.4,-68 -146.2,-14.9 -196,133.7 -416.8,203.2 -645.9,250.1 -146.6,30 -295,50.4 -445.3,40 -304.6,-21.2 -597.2,-87.8 -867.4,-236.3 -8.7,-4.8 -18.4,-8.4 -26,-14.6 -134.8,-110.5 -128,-70.8 -217,18 -596.5,595.9 -1198.3,1186.5 -1786.4,1790.5 -904.3,928.7 -1830.9,1834.9 -2742.3,2756.2 -75,75.9 -155.8,145.1 -234.9,216.2 -36.3,32.6 -45.5,59.2 -6,98 65.6,64.4 98.2,150.6 133.3,232.5 84.4,197.2 135.6,405.4 126.4,619.5 -9.7,226.9 -65,446.2 -177.6,647.6 -44.8,80.2 -45.2,84 20.6,140.7 288.1,248.4 542,531.6 815.1,795.3 899,867.8 1770.1,1763.8 2663.1,2637.5 414.3,405.4 822.3,817 1235,1223.9 18.8,18.5 34.7,40.8 60,50.7"
         style="fill:#f25f29;fill-opacity:1;fill-rule:nonzero;stroke:none"
         transform="matrix(0.13333333,0,0,-0.13333333,0,5461.3333)" />
      <path
         id="path56"
         d="m 29477.3,17524.9 c -39.1,-36 -79.5,-70.6 -116.9,-108.1 -281.9,-283.1 -563.3,-566.7 -844.6,-850.3 -890.8,-898.3 -1781.6,-1796.5 -2671.9,-2695.1 -91.3,-92.2 -179.2,-187.8 -269.8,-280.8 -32.1,-33 -62.8,-70.2 -114.9,-72.6 -8.4,10.3 -17.4,20.1 -25,30.9 -52.2,74.2 -53.2,79.1 11.7,141.2 375.4,359.1 737.9,731.1 1105.5,1098 285.2,284.5 570,569.3 852.2,856.9 461.6,470.5 929.1,935.4 1393.8,1403 185.3,186.5 370.1,373.8 554.4,561.4 30.2,30.7 57.9,56.2 101.6,21.9 37.6,-29.6 65.3,-59.8 23.9,-106.4"
         style="fill:#fcfbcf;fill-opacity:1;fill-rule:nonzero;stroke:none"
         transform="matrix(0.13333333,0,0,-0.13333333,0,5461.3333)" />
      <path
         id="path57"
         d="m 20542.4,23818.3 c -89.7,0 -179.5,1.6 -269.1,-0.6 -47.3,-1.1 -66.7,18.8 -65.9,64.6 2.8,162.7 5.4,325.5 7,488.3 0.4,39.7 21.1,50.4 56.6,50.1 186.1,-1.8 372.2,-3 558.3,-3.2 45.5,-0.1 66.8,-18 65.4,-65.3 -4.6,-159.4 -8.3,-318.9 -10.8,-478.3 -0.7,-43.8 -22.2,-57.2 -62.4,-56.7 -93,1.1 -186.1,0.4 -279.1,0.4 0,0.2 0,0.5 0,0.7"
         style="fill:#fefefc;fill-opacity:1;fill-rule:nonzero;stroke:none"
         transform="matrix(0.13333333,0,0,-0.13333333,0,5461.3333)" />
      <path
         id="path58"
         d="m 20539.5,10215.8 c 86.4,0 172.8,1 259.2,-0.3 74.8,-1.2 68.1,-3.3 78.2,-80.2 21.5,-164.6 -12.3,-298.3 -170.7,-383.2 -45.7,-24.5 -81.9,-67.2 -121.7,-102.4 -30.3,-26.8 -57.9,-26.3 -86.7,2.9 -79.8,80.8 -171.5,146.7 -266.9,207.5 -24.8,15.7 -35.8,36.1 -35.5,65.8 0.8,76.5 1.5,153 -1.7,229.3 -2.1,50.7 22.6,61.4 66.7,60.5 93,-1.9 186.1,-0.6 279.1,-0.6 0,0.3 0,0.5 0,0.7"
         style="fill:#fefef8;fill-opacity:1;fill-rule:nonzero;stroke:none"
         transform="matrix(0.13333333,0,0,-0.13333333,0,5461.3333)" />
      <path
         id="path59"
         d="m 21734.1,9869.1 c 0,-153.3 0.8,-306.6 -0.4,-459.9 -0.5,-71.7 -2.6,-74.3 -72.5,-74.7 -133.2,-0.7 -266.3,-11.7 -399.6,-1.7 -73.3,5.5 -76,4 -76.5,71.9 -2.4,313.2 -2.5,626.5 -5.4,939.8 -0.5,51.3 16.8,72.4 69.1,70.3 136.5,-5.6 273.1,-10.6 409.6,-11.3 56.3,-0.3 65.9,-28.1 65.5,-74.7 -1.2,-153.2 -0.4,-306.5 -0.4,-459.7 3.5,0 7,0 10.6,0"
         style="fill:#f4a819;fill-opacity:1;fill-rule:nonzero;stroke:none"
         transform="matrix(0.13333333,0,0,-0.13333333,0,5461.3333)" />
      <path
         id="path60"
         d="m 19339.3,9869.6 c 0,156.3 -0.7,312.6 0.3,468.9 0.4,75.3 1.8,76.4 79.2,77.6 116.3,1.8 232.8,3 349.2,2.4 82.1,-0.4 85.5,-4 88.8,-83.1 2.7,-63.1 2.8,-126.4 3.2,-189.6 1.5,-236.1 3.2,-472.2 3.7,-708.4 0.3,-109.3 4.2,-100.6 -104.9,-101.1 -113.1,-0.5 -226.2,-1.6 -339.3,-0.6 -79.5,0.7 -79.8,2.1 -80,84.9 -0.3,149.6 -0.1,299.3 -0.2,449"
         style="fill:#f4a516;fill-opacity:1;fill-rule:nonzero;stroke:none"
         transform="matrix(0.13333333,0,0,-0.13333333,0,5461.3333)" />
      <path
         id="path61"
         d="m 20525.9,18063.4 c 389.5,-13.8 764.6,-106.5 1099.4,-334.6 331.1,-225.7 524.9,-538.1 590.7,-932 13.5,-80.7 -4.9,-159.5 -17.9,-237.5 -34.5,-206.3 -116.5,-395.4 -237.7,-564.5 -115.6,-161.1 -268.7,-284.6 -434.9,-390.7 -255.8,-163.4 -537,-261.5 -836.9,-299.7 -145,-18.5 -292.1,-7.2 -436.4,21.8 -266.1,53.5 -515.7,148.4 -747.3,291.7 -305.7,189.1 -526.5,443.4 -625.2,794.4 -66,234.4 -59,466.1 34.3,692.3 151.9,368.5 414.2,626 779.6,785.5 263.3,114.9 537.3,165.3 832.3,173.3"
         style="fill:#f7ab18;fill-opacity:1;fill-rule:nonzero;stroke:none"
         transform="matrix(0.13333333,0,0,-0.13333333,0,5461.3333)" />
      <path
         id="path62"
         d="m 20523.8,17214.7 c 89.6,0 179.3,-1.1 269,0.4 45.4,0.7 67.1,-15.2 64.8,-63.8 -3.6,-76.2 -3.3,-152.7 -4.4,-229.1 -0.7,-45.9 -17.5,-83.9 -54.2,-112.3 -63,-48.8 -125.9,-97.5 -189,-146.1 -51.3,-39.4 -102.2,-41.3 -154.5,-0.6 -47.1,36.7 -92.7,76.8 -144.2,106.3 -98.4,56.5 -134.3,139 -124.2,248.5 3.9,42.8 2.3,86.4 -0.2,129.4 -2.9,50 14.3,72.2 67.9,70.1 89.6,-3.4 179.3,-0.9 269,-0.9 0,-0.6 0,-1.3 0,-1.9"
         style="fill:#fefef9;fill-opacity:1;fill-rule:nonzero;stroke:none"
         transform="matrix(0.13333333,0,0,-0.13333333,0,5461.3333)" />
    </g>
  </g>
</svg>
