<?xml version="1.0" encoding="utf-8"?>
<svg version="1.1" id="Capa_1" xmlns="http://www.w3.org/2000/svg" x="0px" y="0px" viewBox="24.654 81.888 480.692 413.582" style="enable-background:new 0 0 530 580;">
  <style type="text/css">
	.st0{fill:#3C9741;}
	.st1{opacity:0.42;fill:#2C723A;enable-background:new    ;}
	.st2{fill:#323232;}
	.st3{fill:#DEBD37;}
	.st4{fill:none;stroke:#DEBD37;stroke-miterlimit:10;}
</style>
  <title>Campo</title>
  <path class="st0" d="M115.3,328.7c0,0,47.5-95.4,150.3-95.4s149.4,95.4,149.4,95.4l90.2-89.3c0,0-67-154.3-240.8-154.3 S26,239.5,26,239.5L115.3,328.7z"/>
  <path class="st1" d="M314.8,89.8c136.4,25.6,190.3,149.7,190.3,149.7l-90.2,89.3c0,0-46.6-95.4-149.4-95.4c-1.6,0-3.2,0-4.8,0.1 L314.8,89.8z" style="fill: rgb(60, 151, 65);"/>
  <path class="st2" d="M115.3,328.7l113,113c-7.9,19.9,1.8,42.5,21.7,50.4c19.9,7.9,42.5-1.8,50.4-21.7c3.6-9.1,3.7-19.3,0.1-28.4 L414,329.7c0,0-41.5-96.2-148.4-96.2S115.3,328.7,115.3,328.7z" style="fill: rgb(215, 156, 100);"/>
  <rect x="258.5" y="359.1" class="st3" width="14" height="6.2" style="fill: rgb(255, 255, 255);"/>
  <rect x="259.3" y="266.5" transform="matrix(0.7071 -0.7071 0.7071 0.7071 -115.0326 267.6302)" class="st4" width="12.4" height="12.4" style="fill: rgb(255, 255, 255);"/>
  <rect x="349.8" y="354.6" transform="matrix(0.7071 -0.7071 0.7071 0.7071 -150.8625 357.4273)" class="st4" width="12.4" height="12.4" style="fill: rgb(255, 255, 255);"/>
  <rect x="168.5" y="354.9" transform="matrix(0.7071 -0.7071 0.7071 0.7071 -204.1893 229.3327)" class="st4" width="12.4" height="12.4" style="fill: rgb(255, 255, 255); fill-rule: nonzero; paint-order: fill;"/>
  <polygon class="st3" points="272.5,453.4 265.5,460.7 258.6,453.4 258.6,446.4 272.5,446.4 " style="fill: rgb(255, 255, 255);"/>
  <path class="st3" d="M264.3,495.4c-21.7,0-39.3-17.6-39.3-39.3c0-4.9,0.9-9.7,2.7-14.2L25.4,239.6l0.1-0.3 c0.2-0.4,16.8-39.1,54.4-77.3c21.4-21.9,46.4-39.9,74-53.2c33.8-16,70.9-24.2,110.4-24.2s76.8,8.1,110.8,24.2 c27.8,13.3,53.1,31.3,74.8,53.2c38.2,38.2,55.4,76.9,55.6,77.3l0.1,0.3L301.1,442.1c7.7,20.3-2.5,43-22.8,50.7 C273.8,494.5,269.1,495.4,264.3,495.4L264.3,495.4z M26.6,239.4l202.3,202.3l-0.1,0.3c-7.8,19.7,1.8,41.9,21.5,49.7 s41.9-1.8,49.7-21.5c3.6-9,3.6-19,0.1-28l-0.1-0.3l0.2-0.2l204.3-202.3c-1.7-3.8-19-40.5-55.3-76.7c-35.1-35.1-95.7-77-184.9-77 s-149.1,41.9-183.7,77C45,198.9,28.2,235.6,26.6,239.4L26.6,239.4z" style="fill: rgb(255, 255, 255);"/>
  <path class="st3" d="M287.5,464.6h-11.3v-26.4h11.4L287.5,464.6z M277.1,463.6h9.4v-24.4h-9.4V463.6z" style="fill: rgb(255, 255, 255);"/>
  <path class="st3" d="M253.8,464.6h-11.3v-26.4h11.4L253.8,464.6z M243.5,463.6h9.4v-24.4h-9.4V463.6z" style="fill: rgb(255, 255, 255);"/>
  <rect x="243.1" y="332.4" transform="matrix(0.7071 -0.7071 0.7071 0.7071 -120.3982 375.2302)" class="st3" width="299.2" height="1" style="fill: rgb(255, 255, 255);"/>
  <rect x="136.9" y="183.8" transform="matrix(0.7071 -0.7071 0.7071 0.7071 -195.3308 194.7045)" class="st3" width="1" height="298.7" style="fill: rgb(255, 255, 255);"/>
  <path class="st3" d="M115.7,329l-0.9-0.5c0.1-0.2,12.2-24.2,36.7-47.8c22.6-21.8,60.8-47.8,114-47.8s91.1,26,113.6,47.8 c24.3,23.6,36.1,47.6,36.3,47.8l-0.9,0.4c-0.1-0.2-11.9-24.1-36.1-47.6c-22.3-21.7-60-47.5-112.9-47.5s-90.8,25.9-113.3,47.6 C127.8,304.9,115.8,328.7,115.7,329z" style="fill: rgb(255, 255, 255);"/>
</svg>