<svg viewBox="0 0 72 72" xmlns="http://www.w3.org/2000/svg"><circle cx="36" cy="36" fill="#fcea2b" r="28"/><g fill="none"><path d="m23.111 58.006-1.517-4.207-4.275-1.311"/><path d="m27.658 51.94-2.459-3.735-4.463-.275"/><path d="m30.692 45.113-3.277-3.044-4.401.795"/><path d="m31.997 37.918-3.921-2.151-4.073 1.846"/><path d="m31.295 29.888-4.332-1.111-3.488 2.799"/><path d="m28.666 21.957-4.472-.019-2.698 3.567"/><path d="m24.457 15.353-4.348 1.046-1.773 4.106"/><path d="m49.889 58.006 1.517-4.207 4.275-1.311"/><path d="m45.342 51.94 2.459-3.735 4.463-.275"/><path d="m42.308 45.113 3.277-3.044 4.401.795"/><path d="m41.003 37.918 3.921-2.151 4.073 1.846"/><path d="m41.705 29.888 4.332-1.111 3.488 2.799"/><path d="m44.334 21.957 4.472-.019 2.698 3.567"/><path d="m48.543 15.353 4.348 1.046 1.773 4.106"/><path d="m18 14.5579a27.9882 27.9882 0 0 1 0 42.8842" stroke="#000" stroke-linecap="round" stroke-miterlimit="10" stroke-width="2"/><path d="m54.5 14.991a27.98 27.98 0 0 0 0 42.018" stroke="#000" stroke-linecap="round" stroke-miterlimit="10" stroke-width="2"/><path d="m23.111 58.006-1.517-4.207-4.275-1.311" stroke="#000" stroke-linecap="round" stroke-linejoin="round" stroke-width="2"/><path d="m27.658 51.94-2.459-3.735-4.463-.275" stroke="#000" stroke-linecap="round" stroke-linejoin="round" stroke-width="2"/><path d="m27.658 51.94-2.459-3.735-4.463-.275" stroke="#000" stroke-linecap="round" stroke-linejoin="round" stroke-width="2"/><path d="m30.692 45.113-3.277-3.044-4.401.795" stroke="#000" stroke-linecap="round" stroke-linejoin="round" stroke-width="2"/><path d="m31.997 37.918-3.921-2.151-4.073 1.846" stroke="#000" stroke-linecap="round" stroke-linejoin="round" stroke-width="2"/><path d="m31.295 29.888-4.332-1.111-3.488 2.799" stroke="#000" stroke-linecap="round" stroke-linejoin="round" stroke-width="2"/><path d="m28.666 21.957-4.472-.019-2.698 3.567" stroke="#000" stroke-linecap="round" stroke-linejoin="round" stroke-width="2"/><path d="m24.457 15.353-4.348 1.046-1.773 4.106" stroke="#000" stroke-linecap="round" stroke-linejoin="round" stroke-width="2"/><path d="m49.889 58.006 1.517-4.207 4.275-1.311" stroke="#000" stroke-linecap="round" stroke-linejoin="round" stroke-width="2"/><path d="m45.342 51.94 2.459-3.735 4.463-.275" stroke="#000" stroke-linecap="round" stroke-linejoin="round" stroke-width="2"/><path d="m42.308 45.113 3.277-3.044 4.401.795" stroke="#000" stroke-linecap="round" stroke-linejoin="round" stroke-width="2"/><path d="m41.003 37.918 3.921-2.151 4.073 1.846" stroke="#000" stroke-linecap="round" stroke-linejoin="round" stroke-width="2"/><path d="m41.705 29.888 4.332-1.111 3.488 2.799" stroke="#000" stroke-linecap="round" stroke-linejoin="round" stroke-width="2"/><path d="m44.334 21.957 4.472-.019 2.698 3.567" stroke="#000" stroke-linecap="round" stroke-linejoin="round" stroke-width="2"/><path d="m48.543 15.353 4.348 1.046 1.773 4.106" stroke="#000" stroke-linecap="round" stroke-linejoin="round" stroke-width="2"/><circle cx="36" cy="36" r="28" stroke="#000" stroke-miterlimit="10" stroke-width="2"/><path d="m23.111 58.006-1.517-4.207-4.275-1.311" stroke="#d22f27" stroke-linecap="round" stroke-linejoin="round" stroke-width="2"/><path d="m27.658 51.94-2.459-3.735-4.463-.275" stroke="#d22f27" stroke-linecap="round" stroke-linejoin="round" stroke-width="2"/><path d="m30.692 45.113-3.277-3.044-4.401.795" stroke="#d22f27" stroke-linecap="round" stroke-linejoin="round" stroke-width="2"/><path d="m31.997 37.918-3.921-2.151-4.073 1.846" stroke="#d22f27" stroke-linecap="round" stroke-linejoin="round" stroke-width="2"/><path d="m31.295 29.888-4.332-1.111-3.488 2.799" stroke="#d22f27" stroke-linecap="round" stroke-linejoin="round" stroke-width="2"/><path d="m28.666 21.957-4.472-.019-2.698 3.567" stroke="#d22f27" stroke-linecap="round" stroke-linejoin="round" stroke-width="2"/><path d="m24.457 15.353-4.348 1.046-1.773 4.106" stroke="#d22f27" stroke-linecap="round" stroke-linejoin="round" stroke-width="2"/><path d="m49.889 58.006 1.517-4.207 4.275-1.311" stroke="#d22f27" stroke-linecap="round" stroke-linejoin="round" stroke-width="2"/><path d="m45.342 51.94 2.459-3.735 4.463-.275" stroke="#d22f27" stroke-linecap="round" stroke-linejoin="round" stroke-width="2"/><path d="m42.308 45.113 3.277-3.044 4.401.795" stroke="#d22f27" stroke-linecap="round" stroke-linejoin="round" stroke-width="2"/><path d="m41.003 37.918 3.921-2.151 4.073 1.846" stroke="#d22f27" stroke-linecap="round" stroke-linejoin="round" stroke-width="2"/><path d="m41.705 29.888 4.332-1.111 3.488 2.799" stroke="#d22f27" stroke-linecap="round" stroke-linejoin="round" stroke-width="2"/><path d="m44.334 21.957 4.472-.019 2.698 3.567" stroke="#d22f27" stroke-linecap="round" stroke-linejoin="round" stroke-width="2"/><path d="m48.543 15.353 4.348 1.046 1.773 4.106" stroke="#d22f27" stroke-linecap="round" stroke-linejoin="round" stroke-width="2"/></g></svg>